<svg width="24" height="24" viewBox="0 0 24 24" fill="none" xmlns="http://www.w3.org/2000/svg">
<path d="M5 6C3.9 6 3 6.9 3 8C3 9.1 3.9 10 5 10C6.1 10 7 9.11 7 8C7 6.89 6.11 6 5 6ZM12 4C11.6044 4 11.2178 4.1173 10.8889 4.33706C10.56 4.55682 10.3036 4.86918 10.1522 5.23463C10.0009 5.60009 9.96126 6.00222 10.0384 6.39018C10.1156 6.77814 10.3061 7.13451 10.5858 7.41421C10.8655 7.69392 11.2219 7.8844 11.6098 7.96157C11.9978 8.03874 12.3999 7.99913 12.7654 7.84776C13.1308 7.69638 13.4432 7.44004 13.6629 7.11114C13.8827 6.78224 14 6.39556 14 6C14 4.89 13.11 4 12 4ZM19 2C17.9 2 17 2.9 17 4C17 5.1 17.9 6 19 6C20.1 6 21 5.11 21 4C21 2.89 20.11 2 19 2ZM3.5 11C2.67 11 2 11.67 2 12.5V17H3V22H7V17H8V12.5C8 11.67 7.33 11 6.5 11H3.5ZM10.5 9C9.67 9 9 9.67 9 10.5V15H10V20H14V15H15V10.5C15 9.67 14.33 9 13.5 9H10.5ZM17.5 7C16.67 7 16 7.67 16 8.5V13H17V18H21V13H22V8.5C22 7.67 21.33 7 20.5 7H17.5Z" fill="#10902C"/>
</svg>
