<svg width="20" height="20" viewBox="0 0 20 20" fill="none" xmlns="http://www.w3.org/2000/svg">
<g clip-path="url(#clip0_459:973)">
<path d="M18.125 3.75C18.2908 3.75 18.4497 3.81585 18.5669 3.93306C18.6842 4.05027 18.75 4.20924 18.75 4.375V15.625C18.75 15.7908 18.6842 15.9497 18.5669 16.0669C18.4497 16.1842 18.2908 16.25 18.125 16.25H1.875C1.70924 16.25 1.55027 16.1842 1.43306 16.0669C1.31585 15.9497 1.25 15.7908 1.25 15.625V4.375C1.25 4.20924 1.31585 4.05027 1.43306 3.93306C1.55027 3.81585 1.70924 3.75 1.875 3.75H18.125ZM1.875 2.5C1.37772 2.5 0.900805 2.69754 0.549175 3.04917C0.197544 3.40081 0 3.87772 0 4.375L0 15.625C0 16.1223 0.197544 16.5992 0.549175 16.9508C0.900805 17.3025 1.37772 17.5 1.875 17.5H18.125C18.6223 17.5 19.0992 17.3025 19.4508 16.9508C19.8025 16.5992 20 16.1223 20 15.625V4.375C20 3.87772 19.8025 3.40081 19.4508 3.04917C19.0992 2.69754 18.6223 2.5 18.125 2.5H1.875Z" fill="black" fill-opacity="0.7"/>
<path d="M6.25 10C6.25 9.83424 6.31585 9.67527 6.43306 9.55806C6.55027 9.44085 6.70924 9.375 6.875 9.375H15.625C15.7908 9.375 15.9497 9.44085 16.0669 9.55806C16.1842 9.67527 16.25 9.83424 16.25 10C16.25 10.1658 16.1842 10.3247 16.0669 10.4419C15.9497 10.5592 15.7908 10.625 15.625 10.625H6.875C6.70924 10.625 6.55027 10.5592 6.43306 10.4419C6.31585 10.3247 6.25 10.1658 6.25 10ZM6.25 6.875C6.25 6.70924 6.31585 6.55027 6.43306 6.43306C6.55027 6.31585 6.70924 6.25 6.875 6.25H15.625C15.7908 6.25 15.9497 6.31585 16.0669 6.43306C16.1842 6.55027 16.25 6.70924 16.25 6.875C16.25 7.04076 16.1842 7.19973 16.0669 7.31694C15.9497 7.43415 15.7908 7.5 15.625 7.5H6.875C6.70924 7.5 6.55027 7.43415 6.43306 7.31694C6.31585 7.19973 6.25 7.04076 6.25 6.875ZM6.25 13.125C6.25 12.9592 6.31585 12.8003 6.43306 12.6831C6.55027 12.5658 6.70924 12.5 6.875 12.5H15.625C15.7908 12.5 15.9497 12.5658 16.0669 12.6831C16.1842 12.8003 16.25 12.9592 16.25 13.125C16.25 13.2908 16.1842 13.4497 16.0669 13.5669C15.9497 13.6842 15.7908 13.75 15.625 13.75H6.875C6.70924 13.75 6.55027 13.6842 6.43306 13.5669C6.31585 13.4497 6.25 13.2908 6.25 13.125ZM5 6.875C5 7.04076 4.93415 7.19973 4.81694 7.31694C4.69973 7.43415 4.54076 7.5 4.375 7.5C4.20924 7.5 4.05027 7.43415 3.93306 7.31694C3.81585 7.19973 3.75 7.04076 3.75 6.875C3.75 6.70924 3.81585 6.55027 3.93306 6.43306C4.05027 6.31585 4.20924 6.25 4.375 6.25C4.54076 6.25 4.69973 6.31585 4.81694 6.43306C4.93415 6.55027 5 6.70924 5 6.875ZM5 10C5 10.1658 4.93415 10.3247 4.81694 10.4419C4.69973 10.5592 4.54076 10.625 4.375 10.625C4.20924 10.625 4.05027 10.5592 3.93306 10.4419C3.81585 10.3247 3.75 10.1658 3.75 10C3.75 9.83424 3.81585 9.67527 3.93306 9.55806C4.05027 9.44085 4.20924 9.375 4.375 9.375C4.54076 9.375 4.69973 9.44085 4.81694 9.55806C4.93415 9.67527 5 9.83424 5 10ZM5 13.125C5 13.2908 4.93415 13.4497 4.81694 13.5669C4.69973 13.6842 4.54076 13.75 4.375 13.75C4.20924 13.75 4.05027 13.6842 3.93306 13.5669C3.81585 13.4497 3.75 13.2908 3.75 13.125C3.75 12.9592 3.81585 12.8003 3.93306 12.6831C4.05027 12.5658 4.20924 12.5 4.375 12.5C4.54076 12.5 4.69973 12.5658 4.81694 12.6831C4.93415 12.8003 5 12.9592 5 13.125Z" fill="black" fill-opacity="0.7"/>
</g>
<defs>
<clipPath id="clip0_459:973">
<rect width="20" height="20" fill="white"/>
</clipPath>
</defs>
</svg>
