<svg width="30" height="20" viewBox="0 0 30 20" fill="none" xmlns="http://www.w3.org/2000/svg">
<path d="M10.0156 14.4375C10.0156 14.7141 10.239 14.9375 10.5156 14.9375H19.4844C19.7609 14.9375 19.9844 14.7141 19.9844 14.4375V10.7969C19.9844 8.04375 17.7531 5.8125 15 5.8125C12.2469 5.8125 10.0156 8.04375 10.0156 10.7969V14.4375ZM11.1406 10.7969C11.1406 8.66563 12.8687 6.9375 15 6.9375C17.1312 6.9375 18.8594 8.66563 18.8594 10.7969V13.8125H13.3125V11.1406C13.3125 11.0547 13.2422 10.9844 13.1562 10.9844H12.4687C12.3828 10.9844 12.3125 11.0547 12.3125 11.1406V13.8125H11.1406V10.7969ZM10.389 6.85156L11.0078 6.23281C11.0562 6.18437 11.0562 6.10469 11.0078 6.05625L9.94686 4.99531C9.92337 4.97205 9.89164 4.959 9.85858 4.959C9.82552 4.959 9.79379 4.97205 9.7703 4.99531L9.15155 5.61406C9.12828 5.63756 9.11523 5.66928 9.11523 5.70234C9.11523 5.73541 9.12828 5.76713 9.15155 5.79063L10.2125 6.85156C10.2609 6.9 10.339 6.9 10.389 6.85156ZM20.8515 5.61406L20.2328 4.99531C20.2093 4.97205 20.1776 4.959 20.1445 4.959C20.1115 4.959 20.0797 4.97205 20.0562 4.99531L18.9953 6.05625C18.972 6.07974 18.959 6.11147 18.959 6.14453C18.959 6.17759 18.972 6.20932 18.9953 6.23281L19.614 6.85156C19.6625 6.9 19.7422 6.9 19.7906 6.85156L20.8515 5.79063C20.9 5.74063 20.9 5.6625 20.8515 5.61406V5.61406ZM20 15.9375H9.99998C9.72342 15.9375 9.49998 16.1609 9.49998 16.4375V16.8125C9.49998 16.8813 9.55623 16.9375 9.62498 16.9375H20.375C20.4437 16.9375 20.5 16.8813 20.5 16.8125V16.4375C20.5 16.1609 20.2765 15.9375 20 15.9375ZM14.5625 4.8125H15.4375C15.5062 4.8125 15.5625 4.75625 15.5625 4.6875V3.1875C15.5625 3.11875 15.5062 3.0625 15.4375 3.0625H14.5625C14.4937 3.0625 14.4375 3.11875 14.4375 3.1875V4.6875C14.4375 4.75625 14.4937 4.8125 14.5625 4.8125Z" fill="#6A7B83"/>
<rect x="0.25" y="0.25" width="29.5" height="19.5" stroke="black" stroke-opacity="0.2" stroke-width="0.5"/>
</svg>
