<svg width="76" height="81" viewBox="0 0 76 81" fill="none" xmlns="http://www.w3.org/2000/svg">
<path d="M45.405 9.43965L39 2.54926L32.595 9.43965L31.5 8.09113L39 0L46.5 8.09113L45.405 9.43965ZM45 12.303L38.925 18.6392L33 12.2291V10.8621L39 4.39655L45 10.8621V12.303ZM40.5 14.6675V11.5271H37.5V14.6675H40.5ZM37.905 22.1121L31.5 15.2217L25.095 22.1121L24 20.7635L31.5 12.6724L39 20.7635L37.905 22.1121ZM52.905 22.1121L46.5 15.2217L40.095 22.1121L39 20.7635L46.5 12.6724L54 20.7635L52.905 22.1121ZM31.5 17.069L37.5 23.5345V30H25.5V23.5345L31.5 17.069ZM46.5 17.069L52.5 23.5345V30H40.5V23.5345L46.5 17.069ZM33 28.1527V24.4581H30V28.1527H33ZM48 28.1527V24.4581H45V28.1527H48Z" fill="#10902C"/>
<path d="M8.19 54.35C6.57 54.17 5.01 53.27 5.01 52.17V51.83H4.17V52.17C4.17 53.27 2.6 54.17 0.97 54.35L1.25 54.97C2.67 54.78 4.02 54.15 4.59 53.18C5.15 54.15 6.49 54.78 7.91 54.97L8.19 54.35ZM2.33 59.09H7.6V57.03H1.5V57.65H6.79V58.49H1.53V60.64H7.87V60H2.33V59.09ZM0.52 55.54V56.2H8.64V55.54H0.52ZM10.0592 52.74V53.4H13.4292C13.2592 55.53 12.0592 57.25 9.64922 58.4L10.0892 59.07C13.0692 57.61 14.2592 55.33 14.2592 52.74H10.0592ZM16.0692 51.77V60.74H16.8892V51.77H16.0692ZM22.9984 58.96V57.27H25.8684V56.61H20.3484V55.16H25.6584V52.43H19.5184V53.1H24.8584V54.5H19.5384V57.27H22.1684V58.96H18.5184V59.63H26.6684V58.96H22.9984ZM31.5777 52.66C32.9577 52.66 33.8577 53.09 33.8577 53.8C33.8577 54.5 32.9577 54.93 31.5777 54.93C30.2077 54.93 29.2977 54.5 29.2977 53.8C29.2977 53.09 30.2077 52.66 31.5777 52.66ZM31.5777 55.6C33.4777 55.6 34.7177 54.91 34.7177 53.8C34.7177 52.69 33.4777 52 31.5777 52C29.6777 52 28.4377 52.69 28.4377 53.8C28.4377 54.91 29.6777 55.6 31.5777 55.6ZM29.3777 57.92H28.5577V60.54H34.7577V59.86H29.3777V57.92ZM27.5177 56.32V56.99H31.2377V58.8H32.0677V56.99H35.6477V56.32H27.5177ZM45.6994 53.9V55.07H43.6294V53.9H45.6994ZM42.8194 55.88H40.3994V54.41H42.8194V55.88ZM43.6294 55.74H45.6994V57.21H46.5294V51.78H45.6994V53.24H43.6294V52.33H42.8194V53.76H40.3994V52.33H39.5894V56.54H43.6294V55.74ZM43.5594 60.09C42.2194 60.09 41.3994 59.71 41.3994 59.06C41.3994 58.41 42.2194 58.02 43.5594 58.02C44.9194 58.02 45.7394 58.41 45.7394 59.06C45.7394 59.71 44.9194 60.09 43.5594 60.09ZM43.5594 57.39C41.7194 57.39 40.5794 58 40.5794 59.06C40.5794 60.12 41.7194 60.73 43.5594 60.73C45.4094 60.73 46.5594 60.12 46.5594 59.06C46.5594 58 45.4094 57.39 43.5594 57.39ZM49.0586 54.43C49.0586 53.6 49.7186 53 50.5886 53C51.4686 53 52.1086 53.6 52.1086 54.43C52.1086 55.27 51.4686 55.87 50.5886 55.87C49.7186 55.87 49.0586 55.27 49.0586 54.43ZM54.6986 53.73V55.13H52.7686C52.8486 54.91 52.8886 54.68 52.8886 54.43C52.8886 54.17 52.8486 53.94 52.7786 53.73H54.6986ZM54.6986 55.8V57.08H55.5286V51.77H54.6986V53.06H52.3986C51.9886 52.6 51.3486 52.31 50.5886 52.31C49.2586 52.31 48.2786 53.18 48.2786 54.43C48.2786 55.69 49.2586 56.57 50.5886 56.57C51.3486 56.57 51.9886 56.28 52.3986 55.8H54.6986ZM52.5586 60.08C51.2086 60.08 50.3886 59.68 50.3886 59.01C50.3886 58.33 51.2086 57.93 52.5586 57.93C53.9286 57.93 54.7486 58.33 54.7486 59.01C54.7486 59.68 53.9286 60.08 52.5586 60.08ZM52.5586 57.29C50.7186 57.29 49.5786 57.92 49.5786 59.01C49.5786 60.1 50.7186 60.73 52.5586 60.73C54.4086 60.73 55.5586 60.1 55.5586 59.01C55.5586 57.92 54.4086 57.29 52.5586 57.29ZM62.7778 54.85H63.9178V57.31H64.7078V51.78H63.9178V54.18H62.7778V51.95H61.9978V57.02H62.7778V54.85ZM61.6278 55.98C60.4778 55.54 59.8078 54.53 59.8078 53.54V52.33H59.0178V53.54C59.0178 54.54 58.3178 55.7 57.1478 56.22L57.5878 56.86C58.4578 56.47 59.0978 55.71 59.4178 54.87C59.7378 55.63 60.3478 56.27 61.1878 56.61L61.6278 55.98ZM61.7478 60.1C60.4078 60.1 59.5678 59.74 59.5678 59.12C59.5678 58.5 60.4078 58.15 61.7478 58.15C63.1078 58.15 63.9378 58.5 63.9378 59.12C63.9378 59.74 63.1078 60.1 61.7478 60.1ZM61.7478 57.51C59.9078 57.51 58.7578 58.1 58.7578 59.12C58.7578 60.14 59.9078 60.73 61.7478 60.73C63.5978 60.73 64.7478 60.14 64.7478 59.12C64.7478 58.1 63.5978 57.51 61.7478 57.51ZM71.467 52.45H69.307V51.68H68.487V52.45H66.317V53.04H71.467V52.45ZM67.577 54.5C67.577 54.1 68.087 53.86 68.897 53.86C69.697 53.86 70.207 54.1 70.207 54.5C70.207 54.9 69.697 55.15 68.897 55.15C68.087 55.15 67.577 54.9 67.577 54.5ZM71.737 55.99C70.967 56.09 70.127 56.16 69.307 56.2V55.67C70.337 55.58 70.987 55.16 70.987 54.5C70.987 53.76 70.157 53.32 68.897 53.32C67.617 53.32 66.797 53.76 66.797 54.5C66.797 55.17 67.447 55.59 68.487 55.67V56.22C67.627 56.25 66.797 56.25 66.097 56.25L66.187 56.86C67.757 56.86 69.877 56.85 71.787 56.51L71.737 55.99ZM68.107 59.29H73.087V57.46H67.277V58.04H72.277V58.74H67.307V60.64H73.427V60.05H68.107V59.29ZM73.087 54.06V51.77H72.267V57.07H73.087V54.75H74.407V54.06H73.087Z" fill="black" fill-opacity="0.5"/>
<path d="M29.298 66.31H27.45V72.806H29.298V66.31ZM23.698 70.958H21.066V68.396H23.698V70.958ZM25.504 66.954H19.246V72.414H25.504V66.954ZM22.55 77.678V76.866H29.298V73.38H20.716V74.794H27.478V75.55H20.73V79.106H29.634V77.678H22.55ZM33.7769 72.386H37.9629V67.402H31.8729V68.872H36.0729V70.93H31.8869V76.236H33.0489C35.3869 76.236 37.2769 76.152 39.3769 75.788L39.1809 74.29C37.3609 74.598 35.7369 74.696 33.7769 74.71V72.386ZM40.0769 66.296V79.232H41.9249V66.296H40.0769ZM48.7838 69.068H51.4438V67.542H44.2198V69.068H46.9078V69.782C46.9078 71.98 45.8578 74.346 43.7018 75.312L44.7518 76.782C46.2638 76.096 47.2998 74.682 47.8738 73.002C48.4478 74.556 49.4698 75.816 50.9678 76.46L51.9758 75.004C49.8198 74.108 48.7838 71.882 48.7838 69.782V69.068ZM52.6338 66.31V79.204H54.4818V66.31H52.6338Z" fill="#10902C"/>
</svg>
