<svg width="25" height="25" viewBox="0 0 25 25" fill="none" xmlns="http://www.w3.org/2000/svg">
<path d="M19.7918 4.16665H17.7085V3.12498C17.7085 2.84871 17.5988 2.58376 17.4034 2.38841C17.2081 2.19306 16.9431 2.08331 16.6668 2.08331C16.3906 2.08331 16.1256 2.19306 15.9303 2.38841C15.7349 2.58376 15.6252 2.84871 15.6252 3.12498V4.16665H9.37516V3.12498C9.37516 2.84871 9.26542 2.58376 9.07007 2.38841C8.87472 2.19306 8.60976 2.08331 8.3335 2.08331C8.05723 2.08331 7.79228 2.19306 7.59693 2.38841C7.40158 2.58376 7.29183 2.84871 7.29183 3.12498V4.16665H5.2085C4.37969 4.16665 3.58484 4.49589 2.99879 5.08194C2.41274 5.66799 2.0835 6.46285 2.0835 7.29165V19.7916C2.0835 20.6204 2.41274 21.4153 2.99879 22.0014C3.58484 22.5874 4.37969 22.9166 5.2085 22.9166H19.7918C20.6206 22.9166 21.4155 22.5874 22.0015 22.0014C22.5876 21.4153 22.9168 20.6204 22.9168 19.7916V7.29165C22.9168 6.46285 22.5876 5.66799 22.0015 5.08194C21.4155 4.49589 20.6206 4.16665 19.7918 4.16665V4.16665ZM20.8335 19.7916C20.8335 20.0679 20.7238 20.3329 20.5284 20.5282C20.3331 20.7236 20.0681 20.8333 19.7918 20.8333H5.2085C4.93223 20.8333 4.66728 20.7236 4.47193 20.5282C4.27658 20.3329 4.16683 20.0679 4.16683 19.7916V12.5H20.8335V19.7916ZM20.8335 10.4166H4.16683V7.29165C4.16683 7.01538 4.27658 6.75043 4.47193 6.55508C4.66728 6.35973 4.93223 6.24998 5.2085 6.24998H7.29183V7.29165C7.29183 7.56791 7.40158 7.83287 7.59693 8.02822C7.79228 8.22357 8.05723 8.33331 8.3335 8.33331C8.60976 8.33331 8.87472 8.22357 9.07007 8.02822C9.26542 7.83287 9.37516 7.56791 9.37516 7.29165V6.24998H15.6252V7.29165C15.6252 7.56791 15.7349 7.83287 15.9303 8.02822C16.1256 8.22357 16.3906 8.33331 16.6668 8.33331C16.9431 8.33331 17.2081 8.22357 17.4034 8.02822C17.5988 7.83287 17.7085 7.56791 17.7085 7.29165V6.24998H19.7918C20.0681 6.24998 20.3331 6.35973 20.5284 6.55508C20.7238 6.75043 20.8335 7.01538 20.8335 7.29165V10.4166Z" fill="#10902C"/>
</svg>
