<svg width="24" height="24" viewBox="0 0 24 24" fill="none" xmlns="http://www.w3.org/2000/svg">
<path d="M21.6748 14.6648L20.1397 13.3523C20.2123 12.907 20.2498 12.4523 20.2498 11.9976C20.2498 11.5429 20.2123 11.0882 20.1397 10.6429L21.6748 9.33043C21.7906 9.23131 21.8735 9.09928 21.9124 8.95191C21.9513 8.80455 21.9445 8.64882 21.8928 8.50543L21.8717 8.4445C21.4491 7.26331 20.8162 6.16833 20.0037 5.21247L19.9615 5.16325C19.863 5.04736 19.7316 4.96405 19.5847 4.9243C19.4379 4.88455 19.2824 4.89024 19.1389 4.9406L17.2334 5.61794C16.5303 5.04138 15.7451 4.58669 14.8967 4.26794L14.5287 2.27576C14.501 2.12585 14.4282 1.98795 14.3202 1.88036C14.2122 1.77277 14.074 1.70059 13.924 1.67341L13.8607 1.66169C12.6397 1.44138 11.3553 1.44138 10.1342 1.66169L10.0709 1.67341C9.9209 1.70059 9.78271 1.77277 9.6747 1.88036C9.56669 1.98795 9.49398 2.12585 9.46622 2.27576L9.0959 4.27732C8.25424 4.59613 7.47043 5.05058 6.77559 5.62263L4.85606 4.9406C4.71254 4.88983 4.55698 4.88395 4.41003 4.92372C4.26309 4.96349 4.13173 5.04704 4.0334 5.16325L3.99122 5.21247C3.17968 6.16901 2.54694 7.2638 2.12325 8.4445L2.10215 8.50543C1.99668 8.7984 2.0834 9.12653 2.32012 9.33043L3.87403 10.657C3.80137 11.0976 3.76622 11.5476 3.76622 11.9953C3.76622 12.4453 3.80137 12.8953 3.87403 13.3336L2.32012 14.6601C2.20433 14.7592 2.12146 14.8913 2.08252 15.0386C2.04359 15.186 2.05043 15.3417 2.10215 15.4851L2.12325 15.546C2.54747 16.7273 3.17559 17.8171 3.99122 18.7781L4.0334 18.8273C4.13197 18.9432 4.26333 19.0265 4.41019 19.0662C4.55705 19.106 4.7125 19.1003 4.85606 19.05L6.77559 18.3679C7.47403 18.9421 8.2545 19.3968 9.0959 19.7132L9.46622 21.7148C9.49398 21.8647 9.56669 22.0026 9.6747 22.1102C9.78271 22.2178 9.9209 22.29 10.0709 22.3171L10.1342 22.3289C11.3665 22.5503 12.6284 22.5503 13.8607 22.3289L13.924 22.3171C14.074 22.29 14.2122 22.2178 14.3202 22.1102C14.4282 22.0026 14.501 21.8647 14.5287 21.7148L14.8967 19.7226C15.7448 19.4047 16.5344 18.9485 17.2334 18.3726L19.1389 19.05C19.2824 19.1007 19.438 19.1066 19.5849 19.0668C19.7318 19.0271 19.8632 18.9435 19.9615 18.8273L20.0037 18.7781C20.8193 17.8148 21.4475 16.7273 21.8717 15.546L21.8928 15.4851C21.9982 15.1968 21.9115 14.8687 21.6748 14.6648V14.6648ZM18.4756 10.9195C18.5342 11.2734 18.5647 11.6367 18.5647 12C18.5647 12.3632 18.5342 12.7265 18.4756 13.0804L18.3209 14.0203L20.0717 15.5179C19.8063 16.1294 19.4712 16.7082 19.0732 17.2429L16.8982 16.4718L16.1623 17.0765C15.6022 17.5359 14.9787 17.8968 14.3037 18.15L13.4107 18.4851L12.9912 20.7585C12.3293 20.8335 11.661 20.8335 10.999 20.7585L10.5795 18.4804L9.69356 18.1406C9.02559 17.8875 8.4045 17.5265 7.84903 17.0695L7.11309 16.4625L4.92403 17.2406C4.52559 16.7039 4.19278 16.125 3.92559 15.5156L5.69512 14.0039L5.54278 13.0664C5.48653 12.7171 5.45606 12.3562 5.45606 12C5.45606 11.6414 5.48418 11.2828 5.54278 10.9336L5.69512 9.99606L3.92559 8.48434C4.19043 7.87262 4.52559 7.29606 4.92403 6.75934L7.11309 7.53747L7.84903 6.93044C8.4045 6.47341 9.02559 6.11247 9.69356 5.85934L10.5818 5.52419L11.0014 3.24607C11.66 3.17107 12.3326 3.17107 12.9936 3.24607L13.4131 5.5195L14.3061 5.85466C14.9787 6.10778 15.6045 6.46872 16.1647 6.92809L16.9006 7.53278L19.0756 6.76169C19.474 7.2984 19.8068 7.87731 20.074 8.48668L18.3232 9.98434L18.4756 10.9195ZM11.9998 7.64059C9.72168 7.64059 7.87481 9.48746 7.87481 11.7656C7.87481 14.0437 9.72168 15.8906 11.9998 15.8906C14.2779 15.8906 16.1248 14.0437 16.1248 11.7656C16.1248 9.48746 14.2779 7.64059 11.9998 7.64059ZM13.8561 13.6218C13.6126 13.866 13.3233 14.0596 13.0047 14.1915C12.6861 14.3235 12.3446 14.3911 11.9998 14.3906C11.299 14.3906 10.6404 14.1164 10.1436 13.6218C9.8994 13.3784 9.70578 13.089 9.57385 12.7705C9.44192 12.4519 9.37427 12.1104 9.37481 11.7656C9.37481 11.0648 9.64903 10.4062 10.1436 9.90934C10.6404 9.41246 11.299 9.14059 11.9998 9.14059C12.7006 9.14059 13.3592 9.41246 13.8561 9.90934C14.1002 10.1528 14.2938 10.4421 14.4258 10.7607C14.5577 11.0793 14.6253 11.4208 14.6248 11.7656C14.6248 12.4664 14.3506 13.125 13.8561 13.6218Z" fill="black"/>
</svg>
