<svg width="144" height="179" viewBox="0 0 144 179" fill="none" xmlns="http://www.w3.org/2000/svg">
<path d="M53.9219 163.488H61.2499V166.128H53.9219V163.488ZM58.2419 170.272V167.184H62.5299V159.856H61.2499V162.416H53.9219V159.856H52.6259V167.184H56.9139V170.272H51.0899V171.344H64.0979V170.272H58.2419ZM67.0406 163.376C67.0406 161.968 68.0966 160.976 69.5046 160.976C70.9126 160.976 71.9686 161.968 71.9686 163.376C71.9686 164.784 70.9126 165.776 69.5046 165.776C68.0966 165.776 67.0406 164.784 67.0406 163.376ZM73.2486 163.376C73.2486 161.296 71.6486 159.84 69.5046 159.84C67.3606 159.84 65.7606 161.296 65.7606 163.376C65.7606 165.456 67.3606 166.912 69.5046 166.912C71.6486 166.912 73.2486 165.456 73.2486 163.376ZM69.0086 168.32H67.6966V172.864H77.2646V171.792H69.0086V168.32ZM76.6246 163.2V158.832H75.3126V169.392H76.6246V164.288H78.7366V163.2H76.6246ZM90.3834 167.328H91.7114V158.848H90.3834V161.888H87.2634V162.96H90.3834V167.328ZM88.3034 165.632C86.2074 164.896 84.8154 163.12 84.8154 161.072V159.648H83.5034V161.12C83.5034 163.312 82.0794 165.232 79.8714 166.016L80.5594 167.088C82.2874 166.432 83.5834 165.136 84.1914 163.44C84.8154 164.928 86.0314 166.064 87.5994 166.656L88.3034 165.632ZM86.9754 172.128C84.8154 172.128 83.5034 171.504 83.5034 170.464C83.5034 169.408 84.8154 168.784 86.9754 168.784C89.1354 168.784 90.4474 169.408 90.4474 170.464C90.4474 171.504 89.1354 172.128 86.9754 172.128ZM86.9754 167.76C84.0314 167.76 82.1914 168.736 82.1914 170.464C82.1914 172.176 84.0314 173.168 86.9754 173.168C89.9194 173.168 91.7594 172.176 91.7594 170.464C91.7594 168.736 89.9194 167.76 86.9754 167.76Z" fill="black"/>
<circle cx="72" cy="72" r="72" fill="#E0ECEC"/>
<path d="M72 32L40 46.5455V68.3636C40 88.5455 53.6533 107.418 72 112C90.3467 107.418 104 88.5455 104 68.3636V46.5455L72 32ZM72 71.9636H96.8889C95.0044 86.9455 85.2267 100.291 72 104.473V72H47.1111V51.2727L72 39.9636V71.9636Z" fill="black"/>
</svg>
