<svg width="15" height="14" viewBox="0 0 15 14" fill="none" xmlns="http://www.w3.org/2000/svg">
<path d="M11.9992 2.53902C12.1064 2.61639 12.2349 2.72595 12.336 2.85782C12.4335 2.98509 12.4899 3.11233 12.5 3.23878V9.24833C12.5 9.2784 12.4976 9.30333 12.4937 9.32369L12.9849 9.4171L12.4937 9.32369C12.4257 9.68126 12.3459 9.80933 12.2782 9.87277C12.211 9.93576 12.0811 10.0051 11.742 10.0556H4.89821C4.46567 10.0556 4.05418 10.2423 3.76935 10.5678L2.5 12.0185V3.25699C2.55779 2.85526 2.63838 2.71745 2.69963 2.65722C2.75621 2.60158 2.87649 2.53347 3.2442 2.5H11.8346C11.9237 2.5 11.9747 2.5213 11.9992 2.53902ZM2.31764 12.2269C2.31767 12.2269 2.31771 12.2268 2.31775 12.2268L2.31764 12.2269Z" stroke="#2E7AC0"/>
<rect width="15" height="1" fill="white"/>
<rect x="14" y="1" width="1" height="12" fill="white"/>
<rect y="1" width="1" height="12" fill="white"/>
<rect y="13" width="15" height="1" fill="white"/>
</svg>
