<svg width="36" height="36" viewBox="0 0 36 36" fill="none" xmlns="http://www.w3.org/2000/svg">
<path d="M20.7 7.19995C20.7 6.48387 20.4155 5.79711 19.9092 5.29076C19.4028 4.78441 18.7161 4.49995 18 4.49995C17.2839 4.49995 16.5972 4.78441 16.0908 5.29076C15.5845 5.79711 15.3 6.48387 15.3 7.19995H13.5C13.5 6.00648 13.9741 4.86188 14.818 4.01797C15.6619 3.17406 16.8065 2.69995 18 2.69995C19.1935 2.69995 20.3381 3.17406 21.182 4.01797C22.0259 4.86188 22.5 6.00648 22.5 7.19995H30.6C30.8387 7.19995 31.0676 7.29477 31.2364 7.46355C31.4052 7.63234 31.5 7.86126 31.5 8.09995C31.5 8.33865 31.4052 8.56756 31.2364 8.73635C31.0676 8.90513 30.8387 8.99995 30.6 8.99995H29.6028L27.27 29.2139C27.1684 30.0913 26.7479 30.9006 26.0884 31.4881C25.429 32.0755 24.5766 32.4001 23.6934 32.3999H12.3066C11.4234 32.4001 10.571 32.0755 9.91155 31.4881C9.25208 30.9006 8.83156 30.0913 8.73 29.2139L6.3954 8.99995H5.4C5.18935 9.00002 4.98536 8.9262 4.82353 8.79135C4.66171 8.6565 4.55232 8.46916 4.5144 8.26195L4.5 8.09995C4.5 7.86126 4.59482 7.63234 4.7636 7.46355C4.93239 7.29477 5.16131 7.19995 5.4 7.19995H20.7ZM27.7884 8.99995H8.2098L10.5174 29.0069C10.5682 29.4458 10.7786 29.8506 11.1085 30.1443C11.4384 30.4381 11.8649 30.6002 12.3066 30.5999H23.6934C24.1348 30.5998 24.5608 30.4374 24.8904 30.1437C25.2199 29.85 25.43 29.4455 25.4808 29.0069L27.7884 8.99995ZM15.3 13.5C15.741 13.5 16.11 13.779 16.1856 14.1462L16.2 14.2884V25.3133C16.2 25.7471 15.7968 26.0999 15.3 26.0999C14.859 26.0999 14.49 25.8209 14.4144 25.4537L14.4 25.3116V14.2902C14.4 13.8546 14.8032 13.5017 15.3 13.5017V13.5ZM20.7 13.5C21.141 13.5 21.51 13.779 21.5856 14.1462L21.6 14.2884V25.3133C21.6 25.7471 21.1968 26.0999 20.7 26.0999C20.259 26.0999 19.89 25.8209 19.8144 25.4537L19.8 25.3116V14.2902C19.8 13.8546 20.2032 13.5017 20.7 13.5017V13.5Z" fill="black"/>
</svg>
