<svg width="20" height="20" viewBox="0 0 20 20" fill="none" xmlns="http://www.w3.org/2000/svg">
<g clip-path="url(#clip0_728:1921)">
<path d="M15.1056 18.8889C14.86 18.8887 14.6202 18.8152 14.4167 18.6778L10.2722 15.9C10.2518 15.8859 10.2276 15.8784 10.2028 15.8784C10.178 15.8784 10.1538 15.8859 10.1333 15.9L5.98889 18.6778C5.78078 18.8168 5.53531 18.8891 5.2851 18.8853C5.03489 18.8814 4.79176 18.8016 4.588 18.6563C4.38425 18.511 4.22951 18.3072 4.14433 18.0719C4.05915 17.8366 4.04757 17.5809 4.11111 17.3389L5.47223 12.5389C5.47866 12.5148 5.47788 12.4893 5.46998 12.4656C5.46208 12.4419 5.44741 12.421 5.42778 12.4056L1.50556 9.32224C1.29908 9.16842 1.14592 8.95384 1.06755 8.70858C0.989183 8.46332 0.989537 8.19968 1.06856 7.95463C1.14759 7.70959 1.30133 7.49542 1.50822 7.34215C1.71511 7.18889 1.96478 7.10422 2.22223 7.10002L7.22223 6.91113C7.24681 6.90943 7.27038 6.90066 7.29009 6.88588C7.30981 6.87109 7.32482 6.85092 7.33334 6.8278L9.05556 2.14446C9.14237 1.90704 9.30004 1.70203 9.50722 1.55718C9.71441 1.41234 9.9611 1.33466 10.2139 1.33466C10.4667 1.33466 10.7134 1.41234 10.9206 1.55718C11.1277 1.70203 11.2854 1.90704 11.3722 2.14446L13.0944 6.8278C13.103 6.85092 13.118 6.87109 13.1377 6.88588C13.1574 6.90066 13.181 6.90943 13.2056 6.91113L18.2056 7.10002C18.463 7.10422 18.7127 7.18889 18.9196 7.34215C19.1265 7.49542 19.2802 7.70959 19.3592 7.95463C19.4382 8.19968 19.4386 8.46332 19.3602 8.70858C19.2819 8.95384 19.1287 9.16842 18.9222 9.32224L15 12.4056C14.9798 12.4205 14.9647 12.4414 14.9567 12.4652C14.9487 12.4891 14.9483 12.5148 14.9556 12.5389L16.3167 17.3389C16.3644 17.523 16.3692 17.7157 16.3305 17.9019C16.2919 18.0881 16.2108 18.263 16.0937 18.4129C15.9766 18.5627 15.8266 18.6836 15.6552 18.7662C15.4838 18.8488 15.2958 18.8907 15.1056 18.8889V18.8889ZM10.2056 14.7667C10.4516 14.7742 10.6897 14.8555 10.8889 15L15.0333 17.7778C15.0543 17.7938 15.0799 17.8025 15.1063 17.8027C15.1327 17.8029 15.1584 17.7946 15.1797 17.779C15.201 17.7633 15.2166 17.7412 15.2242 17.716C15.2319 17.6908 15.2312 17.6637 15.2222 17.6389L13.8611 12.8389C13.7941 12.6034 13.7991 12.3533 13.8753 12.1207C13.9515 11.8881 14.0956 11.6835 14.2889 11.5334L18.2111 8.45002C18.2325 8.43499 18.2485 8.4135 18.2568 8.38869C18.2651 8.36389 18.2652 8.33709 18.2571 8.31222C18.249 8.28736 18.2332 8.26574 18.2119 8.25054C18.1906 8.23535 18.165 8.22737 18.1389 8.2278L13.1389 8.03891C12.8941 8.02936 12.6576 7.94712 12.4597 7.80266C12.2619 7.6582 12.1115 7.45807 12.0278 7.2278L10.3056 2.54446C10.2978 2.5196 10.2823 2.49786 10.2613 2.48243C10.2403 2.46699 10.2149 2.45867 10.1889 2.45867C10.1628 2.45867 10.1375 2.46699 10.1165 2.48243C10.0955 2.49786 10.08 2.5196 10.0722 2.54446L8.36667 7.22224C8.28298 7.45251 8.1326 7.65264 7.93471 7.7971C7.73682 7.94156 7.50038 8.02381 7.25556 8.03335L2.25556 8.22224C2.22942 8.22182 2.20383 8.22979 2.18255 8.24499C2.16127 8.26018 2.14543 8.2818 2.13735 8.30667C2.12927 8.33153 2.12937 8.35834 2.13765 8.38314C2.14593 8.40794 2.16194 8.42943 2.18334 8.44446L6.11111 11.5334C6.30386 11.684 6.44745 11.8886 6.52362 12.121C6.59979 12.3535 6.60511 12.6034 6.53889 12.8389L5.18334 17.6389C5.17525 17.6629 5.17521 17.689 5.18323 17.713C5.19125 17.7371 5.20689 17.7579 5.22778 17.7722C5.24791 17.7895 5.27352 17.7989 5.3 17.7989C5.32649 17.7989 5.3521 17.7895 5.37223 17.7722L9.51667 14.9945C9.71922 14.8601 9.95695 14.7886 10.2 14.7889L10.2056 14.7667Z" fill="#455A64"/>
<path d="M8.04152 7.49827L8.34947 7.47261L8.46424 7.1857L10.25 2.72129L12.0358 7.1857L12.0739 7.28098L12.1464 7.35355L12.6464 7.85355L12.7929 8H13H17.882L18.5 8.30902V8.73241L14.2226 11.584L14 11.7324V12V13V13.0734L14.0211 13.1437L15.4002 17.7409L15.0359 17.923L10.7774 15.084L10.6514 15H10.5H9.5H9.33333L9.2 15.1L5.44721 17.9146L5.08235 17.7322L5.48305 16.1293L6.48076 12.6374L6.5 12.57V12.5V12V11.7555L6.30697 11.6053L2.13053 8.35698L2.32155 7.97494L8.04152 7.49827Z" fill="#455A64" stroke="#455A64"/>
</g>
<defs>
<clipPath id="clip0_728:1921">
<rect width="20" height="20" fill="white"/>
</clipPath>
</defs>
</svg>
