<svg width="20" height="20" viewBox="0 0 20 20" fill="none" xmlns="http://www.w3.org/2000/svg">
<path fill-rule="evenodd" clip-rule="evenodd" d="M7.60976 2.43909H3C1.34315 2.43909 0 3.78223 0 5.43909V17C0 18.6569 1.34315 20 3 20H14.561C16.2178 20 17.561 18.6569 17.561 17V12.3903H16.561V17C16.561 18.1046 15.6655 19 14.561 19H3C1.89543 19 1 18.1046 1 17V5.43909C1 4.33452 1.89543 3.43909 3 3.43909H7.60976V2.43909Z" fill="black" fill-opacity="0.8"/>
<path d="M7.40998 15.6666L4.29969 16.2887C3.94983 16.3586 3.64137 16.0502 3.71135 15.7003L4.3334 12.59C4.35276 12.4933 4.40034 12.4044 4.47014 12.3346L15.7441 1.06066C15.9393 0.865397 16.2559 0.865396 16.4512 1.06066L18.9394 3.54888C19.1347 3.74414 19.1347 4.06072 18.9394 4.25598L7.66547 15.5299C7.59567 15.5997 7.50677 15.6473 7.40998 15.6666Z" stroke="black" stroke-opacity="0.8"/>
</svg>
