<svg width="20" height="20" viewBox="0 0 20 20" fill="none" xmlns="http://www.w3.org/2000/svg">
<path d="M15 1.66669H10.8334C10.8334 2.12502 10.4584 2.50002 10 2.50002C9.54171 2.50002 9.16671 2.12502 9.16671 1.66669H5.00004C4.08337 1.66669 3.33337 2.41669 3.33337 3.33335V16.6667C3.33337 17.5834 4.08337 18.3334 5.00004 18.3334H15C15.9167 18.3334 16.6667 17.5834 16.6667 16.6667V3.33335C16.6667 2.41669 15.9167 1.66669 15 1.66669Z" fill="#455A64"/>
<path d="M15 17.0834H5.00004C4.75004 17.0834 4.58337 16.9167 4.58337 16.6667V3.33335C4.58337 3.08335 4.75004 2.91669 5.00004 2.91669H15C15.25 2.91669 15.4167 3.08335 15.4167 3.33335V16.6667C15.4167 16.9167 15.25 17.0834 15 17.0834Z" fill="white"/>
<path d="M10.8333 1.66669C10.8333 2.12502 10.4583 2.50002 10 2.50002C9.54167 2.50002 9.16667 2.12502 9.16667 1.66669H6.25V3.33335C6.25 3.79169 6.625 4.16669 7.08333 4.16669H12.9167C13.375 4.16669 13.75 3.79169 13.75 3.33335V1.66669H10.8333Z" fill="#455A64"/>
<path d="M10 0C9.08337 0 8.33337 0.75 8.33337 1.66667C8.33337 2.58333 9.08337 3.33333 10 3.33333C10.9167 3.33333 11.6667 2.58333 11.6667 1.66667C11.6667 0.75 10.9167 0 10 0ZM10 2.5C9.54171 2.5 9.16671 2.125 9.16671 1.66667C9.16671 1.20833 9.54171 0.833333 10 0.833333C10.4584 0.833333 10.8334 1.20833 10.8334 1.66667C10.8334 2.125 10.4584 2.5 10 2.5Z" fill="#455A64"/>
<path d="M7.5 9.99998L9.16667 11.6666L12.5 8.33331" stroke="#455A64" stroke-width="1.5" stroke-linecap="round" stroke-linejoin="round"/>
</svg>
