<svg width="20" height="20" viewBox="0 0 20 20" fill="none" xmlns="http://www.w3.org/2000/svg">
<path d="M10 6.45831C10 6.29255 9.93415 6.13358 9.81694 6.01637C9.69973 5.89916 9.54076 5.83331 9.375 5.83331C9.20924 5.83331 9.05027 5.89916 8.93306 6.01637C8.81585 6.13358 8.75 6.29255 8.75 6.45831V10.625C8.75 10.97 9.03 11.25 9.375 11.25H12.2917C12.4574 11.25 12.6164 11.1841 12.7336 11.0669C12.8508 10.9497 12.9167 10.7907 12.9167 10.625C12.9167 10.4592 12.8508 10.3002 12.7336 10.183C12.6164 10.0658 12.4574 9.99998 12.2917 9.99998H10V6.45831Z" fill="#455A64" fill-opacity="0.8"/>
<path d="M2.89672 7.58583C2.53469 7.2915 2.23848 6.92443 2.02725 6.5084C1.81603 6.09236 1.69451 5.63661 1.67054 5.17064C1.64657 4.70467 1.72069 4.23886 1.88812 3.80334C2.05554 3.36783 2.31252 2.97231 2.64245 2.64239C2.97237 2.31246 3.36789 2.05547 3.8034 1.88805C4.23892 1.72063 4.70473 1.64651 5.1707 1.67048C5.63667 1.69445 6.09242 1.81597 6.50846 2.02719C6.9245 2.23842 7.29156 2.53463 7.58589 2.89666C8.36344 2.63303 9.17903 2.49902 10.0001 2.5C10.8211 2.49904 11.6367 2.63305 12.4142 2.89666C12.7086 2.53463 13.0756 2.23842 13.4917 2.02719C13.9077 1.81597 14.3634 1.69445 14.8294 1.67048C15.2954 1.64651 15.7612 1.72063 16.1967 1.88805C16.6322 2.05547 17.0277 2.31246 17.3577 2.64239C17.6876 2.97231 17.9446 3.36783 18.112 3.80334C18.2794 4.23886 18.3535 4.70467 18.3296 5.17064C18.3056 5.63661 18.1841 6.09236 17.9729 6.5084C17.7616 6.92443 17.4654 7.2915 17.1034 7.58583C17.3601 8.34416 17.5001 9.15583 17.5001 10C17.5001 11.8458 16.8334 13.5367 15.7267 14.8433L17.3167 16.4333C17.3781 16.4905 17.4274 16.5595 17.4615 16.6362C17.4957 16.7129 17.5141 16.7956 17.5155 16.8796C17.517 16.9635 17.5016 17.0468 17.4702 17.1247C17.4387 17.2025 17.3919 17.2732 17.3326 17.3325C17.2732 17.3919 17.2025 17.4387 17.1247 17.4701C17.0469 17.5015 16.9635 17.517 16.8796 17.5155C16.7957 17.514 16.7129 17.4956 16.6363 17.4615C16.5596 17.4273 16.4906 17.3781 16.4334 17.3167L14.8434 15.7267C13.4907 16.8741 11.7738 17.5027 10.0001 17.5C8.15422 17.5 6.46339 16.8333 5.15672 15.7267L3.56672 17.3167C3.44824 17.4271 3.29154 17.4872 3.12962 17.4843C2.9677 17.4815 2.81322 17.4159 2.69871 17.3013C2.58419 17.1868 2.5186 17.0323 2.51574 16.8704C2.51289 16.7085 2.57299 16.5518 2.68339 16.4333L4.27339 14.8433C3.12599 13.4906 2.49738 11.7738 2.50006 10C2.50006 9.15583 2.63922 8.34333 2.89672 7.58583ZM2.91672 5C2.91672 5.52583 3.11172 6.00666 3.43339 6.37333C4.11826 5.13699 5.13705 4.1182 6.37339 3.43333C6.07229 3.16938 5.70151 2.99779 5.30543 2.9391C4.90934 2.88041 4.50474 2.9371 4.14004 3.10239C3.77534 3.26769 3.46599 3.53458 3.24904 3.87111C3.03209 4.20765 2.91671 4.59959 2.91672 5ZM16.5667 6.37333C16.9156 5.97566 17.1001 5.46017 17.0828 4.93145C17.0656 4.40272 16.8478 3.90037 16.4737 3.52631C16.0997 3.15225 15.5973 2.93449 15.0686 2.91723C14.5399 2.89996 14.0244 3.08447 13.6267 3.43333C14.8631 4.1182 15.8818 5.13699 16.5667 6.37333ZM3.75006 10C3.75006 11.6576 4.40854 13.2473 5.58064 14.4194C6.75274 15.5915 8.34245 16.25 10.0001 16.25C11.6577 16.25 13.2474 15.5915 14.4195 14.4194C15.5916 13.2473 16.2501 11.6576 16.2501 10C16.2501 8.34239 15.5916 6.75268 14.4195 5.58058C13.2474 4.40848 11.6577 3.75 10.0001 3.75C8.34245 3.75 6.75274 4.40848 5.58064 5.58058C4.40854 6.75268 3.75006 8.34239 3.75006 10Z" fill="#455A64" fill-opacity="0.8"/>
</svg>
