<svg width="337" height="77" viewBox="0 0 337 77" fill="none" xmlns="http://www.w3.org/2000/svg">
<path d="M22.328 13.108H8.684V9.688H22.328V13.108ZM27.008 2.2H22.328V5.98H8.684V2.2H3.968V16.888H27.008V2.2ZM30.572 20.02H0.548V23.8H13.076V34.132H17.828V23.8H30.572V20.02ZM38.5612 8.608H46.1572V4.756H33.8812V26.644H36.1852C40.4332 26.644 43.9612 26.5 47.9932 25.744L47.6332 21.892C44.4652 22.468 41.6572 22.648 38.5612 22.72V8.608ZM56.8852 0.903999V13.684H53.8972V1.552H49.4692V32.548H53.8972V17.5H56.8852V34.096H61.3852V0.903999H56.8852ZM88.3104 8.716V11.164H82.4064V8.716H88.3104ZM77.7624 13.36H71.4624V9.76H77.7624V13.36ZM82.4064 14.764H88.3104V17.968H93.0624V0.975998H88.3104V5.116H82.4064V2.308H77.7624V6.196H71.4624V2.308H66.7464V17.068H82.4064V14.764ZM75.9264 30.028V28.084H93.0624V19.228H71.1744V22.9H88.3464V24.664H71.2464V33.7H93.9984V30.028H75.9264ZM114.372 23.908H109.62V33.52H132.588V29.74H114.372V23.908ZM113.868 8.608C113.868 6.592 116.532 5.512 120.96 5.512C125.424 5.512 128.088 6.592 128.088 8.608C128.088 10.66 125.424 11.668 120.96 11.668C116.532 11.668 113.868 10.66 113.868 8.608ZM123.3 18.004V15.34C129.204 14.836 132.984 12.316 132.984 8.608C132.984 4.396 128.196 1.768 120.96 1.768C113.76 1.768 108.972 4.396 108.972 8.608C108.972 12.316 112.716 14.8 118.548 15.34V18.004H105.984V21.784H135.936V18.004H123.3ZM144.43 16.564H154.942V3.748H139.714V7.528H150.262V12.82H139.75V26.5H142.558C148.318 26.5 152.89 26.284 157.858 25.384L157.426 21.532C153.106 22.288 149.182 22.54 144.43 22.576V16.564ZM169.162 13.432H164.41V0.903999H159.658V34.168H164.41V17.356H169.162V13.432ZM198.319 0.975998H193.531V24.772H198.319V0.975998ZM175.891 11.488C175.891 8.752 177.835 7.168 180.283 7.168C182.767 7.168 184.639 8.752 184.639 11.488C184.639 14.152 182.767 15.772 180.283 15.772C177.835 15.772 175.891 14.152 175.891 11.488ZM189.283 11.488C189.283 6.592 185.359 3.064 180.283 3.064C175.207 3.064 171.247 6.592 171.247 11.488C171.247 16.312 175.207 19.876 180.283 19.876C185.359 19.876 189.283 16.312 189.283 11.488ZM181.003 29.74V22.432H176.251V33.52H199.147V29.74H181.003ZM213.077 4.108V7.888H223.553C223.409 9.472 223.157 10.912 222.833 12.316L211.313 12.964L211.925 16.96L221.393 16.096C219.485 19.732 216.281 22.792 211.133 25.492L213.725 29.092C225.605 22.864 228.269 14.296 228.269 4.108H213.077ZM234.389 0.939999V13.648H228.197V17.5H234.389V34.096H239.141V0.939999H234.389ZM265.598 12.136H251.954V6.268H265.598V12.136ZM270.242 2.488H247.274V15.88H270.242V2.488ZM273.842 19.408H243.818V23.188H250.694V34.204H255.41V23.188H262.358V34.204H267.11V23.188H273.842V19.408ZM282.659 4.072H277.943V25.924H280.895C285.935 25.924 291.443 25.564 297.095 24.376L296.591 20.416C291.731 21.388 287.015 21.748 282.659 21.856V4.072ZM299.147 0.903999V34.06H303.899V0.903999H299.147ZM315.128 16.636H325.784V12.928H315.128V7.528H327.152V3.676H310.376V26.608H313.256C319.196 26.608 323.84 26.464 329.024 25.672L328.592 21.892C324.056 22.576 320.06 22.756 315.128 22.792V16.636ZM331.436 0.939999V34.132H336.224V0.939999H331.436Z" fill="black"/>
<path d="M28.052 42.94H23.3V59.644H28.052V42.94ZM13.652 54.892H6.884V48.304H13.652V54.892ZM18.296 44.596H2.204V58.636H18.296V44.596ZM10.7 72.172V70.084H28.052V61.12H5.984V64.756H23.372V66.7H6.02V75.844H28.916V72.172H10.7ZM39.5692 58.564H50.3332V45.748H34.6732V49.528H45.4732V54.82H34.7092V68.464H37.6972C43.7092 68.464 48.5692 68.248 53.9692 67.312L53.4652 63.46C48.7852 64.252 44.6092 64.504 39.5692 64.54V58.564ZM55.7692 42.904V76.168H60.5212V42.904H55.7692ZM78.1584 50.032H84.9984V46.108H66.4224V50.032H73.3344V51.868C73.3344 57.52 70.6344 63.604 65.0904 66.088L67.7904 69.868C71.6784 68.104 74.3424 64.468 75.8184 60.148C77.2944 64.144 79.9224 67.384 83.7744 69.04L86.3664 65.296C80.8224 62.992 78.1584 57.268 78.1584 51.868V50.032ZM88.0584 42.94V76.096H92.8104V42.94H88.0584Z" fill="#10912C"/>
<path d="M28.052 42.94H23.3V59.644H28.052V42.94ZM13.652 54.892H6.884V48.304H13.652V54.892ZM18.296 44.596H2.204V58.636H18.296V44.596ZM10.7 72.172V70.084H28.052V61.12H5.984V64.756H23.372V66.7H6.02V75.844H28.916V72.172H10.7ZM39.5692 58.564H50.3332V45.748H34.6732V49.528H45.4732V54.82H34.7092V68.464H37.6972C43.7092 68.464 48.5692 68.248 53.9692 67.312L53.4652 63.46C48.7852 64.252 44.6092 64.504 39.5692 64.54V58.564ZM55.7692 42.904V76.168H60.5212V42.904H55.7692ZM78.1584 50.032H84.9984V46.108H66.4224V50.032H73.3344V51.868C73.3344 57.52 70.6344 63.604 65.0904 66.088L67.7904 69.868C71.6784 68.104 74.3424 64.468 75.8184 60.148C77.2944 64.144 79.9224 67.384 83.7744 69.04L86.3664 65.296C80.8224 62.992 78.1584 57.268 78.1584 51.868V50.032ZM88.0584 42.94V76.096H92.8104V42.94H88.0584Z" fill="black" fill-opacity="0.2"/>
</svg>
