<svg width="532" height="420" viewBox="0 0 532 420" fill="none" xmlns="http://www.w3.org/2000/svg">
<path d="M155.89 5.94336V7.37891H155.699C153.32 7.37891 151.447 8.08073 150.079 9.48438C148.712 10.8789 147.956 12.8203 147.81 15.3086C148.357 14.5521 149.054 13.9688 149.902 13.5586C150.749 13.1393 151.697 12.9297 152.745 12.9297C154.495 12.9297 155.885 13.5358 156.915 14.748C157.954 15.9512 158.474 17.528 158.474 19.4785C158.474 20.7728 158.232 21.9395 157.749 22.9785C157.266 24.0176 156.574 24.8288 155.671 25.4121C154.769 25.9863 153.739 26.2734 152.581 26.2734C150.676 26.2734 149.127 25.5853 147.933 24.209C146.739 22.8236 146.142 21.0371 146.142 18.8496V17.209C146.142 13.6452 146.953 10.888 148.576 8.9375C150.198 6.97786 152.499 5.97982 155.48 5.94336H155.89ZM152.486 14.3379C151.447 14.3379 150.476 14.6478 149.574 15.2676C148.68 15.8783 148.083 16.6576 147.783 17.6055V19C147.783 20.7318 148.225 22.1445 149.109 23.2383C150.002 24.332 151.16 24.8789 152.581 24.8789C153.857 24.8789 154.887 24.373 155.671 23.3613C156.464 22.3496 156.861 21.0736 156.861 19.5332C156.861 17.9655 156.464 16.7077 155.671 15.7598C154.887 14.8118 153.826 14.3379 152.486 14.3379ZM173.213 17.7012C173.213 20.5085 172.698 22.6413 171.668 24.0996C170.638 25.5488 169.12 26.2734 167.115 26.2734C165.146 26.2734 163.638 25.5625 162.59 24.1406C161.542 22.7096 161.004 20.6315 160.976 17.9062V14.3379C160.976 11.5397 161.496 9.42057 162.535 7.98047C163.574 6.54036 165.092 5.82031 167.088 5.82031C169.057 5.82031 170.56 6.51758 171.6 7.91211C172.639 9.29753 173.176 11.3438 173.213 14.0508V17.7012ZM171.572 14.1328C171.572 11.8542 171.198 10.1315 170.451 8.96484C169.713 7.79818 168.592 7.21484 167.088 7.21484C165.611 7.21484 164.499 7.78451 163.752 8.92383C163.004 10.0632 162.622 11.7448 162.603 13.9688V17.8789C162.603 20.1484 162.986 21.8848 163.752 23.0879C164.527 24.291 165.648 24.8926 167.115 24.8926C168.573 24.8926 169.676 24.3047 170.424 23.1289C171.18 21.9531 171.563 20.2305 171.572 17.9609V14.1328ZM186.123 14.996H179.067V7.044H186.123V14.996ZM188.363 5.196H176.827V16.816H188.363V5.196ZM181.951 19.616H179.655V27.512H196.399V25.636H181.951V19.616ZM195.279 10.6V2.928H192.983V21.324H195.279V12.532H198.975V10.6H195.279ZM212.39 19.672H210.094V27.512H227.594V25.636H212.39V19.672ZM226.474 14.044C227.09 10.824 227.09 8.388 227.09 6.288V4.3H210.122V6.148H224.822V6.288C224.822 8.416 224.822 10.796 224.15 14.044H207.21V15.892H217.57V21.94H219.866V15.892H230.03V14.044H226.474ZM253.244 15.108C249.548 13.876 247.168 10.936 247.168 7.66V6.68H252.712V4.832H239.244V6.68H244.872V7.66C244.872 11.272 242.352 14.52 238.572 15.836L239.748 17.656C242.744 16.592 245.012 14.352 246.076 11.496C247.14 13.988 249.296 15.976 252.152 16.9L253.244 15.108ZM250.192 26.224C246.44 26.224 244.2 25.188 244.2 23.396C244.2 21.632 246.44 20.596 250.192 20.596C253.888 20.596 256.156 21.632 256.156 23.396C256.156 25.188 253.888 26.224 250.192 26.224ZM250.192 18.776C245.04 18.776 241.904 20.484 241.904 23.396C241.904 26.336 245.04 28.044 250.192 28.044C255.288 28.044 258.452 26.336 258.452 23.396C258.452 20.484 255.288 18.776 250.192 18.776ZM258.172 9.312V2.984H255.876V18.132H258.172V11.244H261.896V9.312H258.172ZM282.25 8.92V12.196H276.454V8.92H282.25ZM274.186 14.464H267.41V10.348H274.186V14.464ZM276.454 14.072H282.25V18.188H284.574V2.984H282.25V7.072H276.454V4.524H274.186V8.528H267.41V4.524H265.142V16.312H276.454V14.072ZM276.258 26.252C272.506 26.252 270.21 25.188 270.21 23.368C270.21 21.548 272.506 20.456 276.258 20.456C280.066 20.456 282.362 21.548 282.362 23.368C282.362 25.188 280.066 26.252 276.258 26.252ZM276.258 18.692C271.106 18.692 267.914 20.4 267.914 23.368C267.914 26.336 271.106 28.044 276.258 28.044C281.438 28.044 284.658 26.336 284.658 23.368C284.658 20.4 281.438 18.692 276.258 18.692ZM309.1 9.564H294.4V5.644H308.848V3.796H292.104V11.412H309.1V9.564ZM294.12 23.396H308.876V17.488H291.796V19.28H306.608V21.688H291.88V27.764H309.632V25.972H294.12V23.396ZM289.08 13.428V15.304H311.816V13.428H289.08ZM325.617 5.112C329.733 5.112 332.085 6.064 332.085 7.744C332.085 9.424 329.733 10.376 325.617 10.376C321.501 10.376 319.149 9.424 319.149 7.744C319.149 6.064 321.501 5.112 325.617 5.112ZM325.617 12.084C331.133 12.084 334.437 10.572 334.437 7.744C334.437 4.916 331.133 3.376 325.617 3.376C320.101 3.376 316.797 4.916 316.797 7.744C316.797 10.572 320.101 12.084 325.617 12.084ZM319.317 23.452H334.073V17.796H316.993V19.532H331.805V21.772H317.077V27.792H334.829V26H319.317V23.452ZM314.249 13.792V15.64H336.985V13.792H314.249ZM353.956 6.036C356.392 6.036 358.128 7.352 358.128 9.312C358.128 11.272 356.392 12.588 353.956 12.588C351.492 12.588 349.756 11.272 349.756 9.312C349.756 7.352 351.492 6.036 353.956 6.036ZM353.956 14.464C357.68 14.464 360.34 12.364 360.34 9.312C360.34 6.232 357.68 4.132 353.956 4.132C350.204 4.132 347.544 6.232 347.544 9.312C347.544 12.364 350.204 14.464 353.956 14.464ZM362.216 15.696C356.7 16.536 350.344 16.592 345.668 16.592L345.976 18.524C348.048 18.524 350.428 18.496 352.92 18.384V27.288H355.216V18.244C357.596 18.104 360.032 17.824 362.412 17.404L362.216 15.696ZM364.036 2.984V28.1H366.332V2.984H364.036ZM385.818 6.036H379.546V2.956H377.25V6.036H371.006V7.884H385.818V6.036ZM374.59 13.932C374.59 12.196 376.13 11.076 378.398 11.076C380.666 11.076 382.234 12.196 382.234 13.932C382.234 15.696 380.666 16.816 378.398 16.816C376.13 16.816 374.59 15.696 374.59 13.932ZM384.418 13.932C384.418 11.132 381.954 9.284 378.398 9.284C374.842 9.284 372.406 11.132 372.406 13.932C372.406 16.76 374.842 18.608 378.398 18.608C381.954 18.608 384.418 16.76 384.418 13.932ZM377.082 20.316H374.786V27.512H391.53V25.636H377.082V20.316ZM390.41 11.244V2.956H388.114V21.8H390.41V13.176H394.106V11.244H390.41Z" fill="black" fill-opacity="0.8"/>
<path d="M89.4023 55.09H85.4423V63.1H104.582V59.95H89.4023V55.09ZM88.9823 42.34C88.9823 40.66 91.2023 39.76 94.8923 39.76C98.6123 39.76 100.832 40.66 100.832 42.34C100.832 44.05 98.6123 44.89 94.8923 44.89C91.2023 44.89 88.9823 44.05 88.9823 42.34ZM96.8423 50.17V47.95C101.762 47.53 104.912 45.43 104.912 42.34C104.912 38.83 100.922 36.64 94.8923 36.64C88.8923 36.64 84.9023 38.83 84.9023 42.34C84.9023 45.43 88.0223 47.5 92.8823 47.95V50.17H82.4123V53.32H107.372V50.17H96.8423ZM114.45 48.97H123.21V38.29H110.52V41.44H119.31V45.85H110.55V57.25H112.89C117.69 57.25 121.5 57.07 125.64 56.32L125.28 53.11C121.68 53.74 118.41 53.95 114.45 53.98V48.97ZM135.06 46.36H131.1V35.92H127.14V63.64H131.1V49.63H135.06V46.36ZM159.358 35.98H155.368V55.81H159.358V35.98ZM140.668 44.74C140.668 42.46 142.288 41.14 144.328 41.14C146.398 41.14 147.958 42.46 147.958 44.74C147.958 46.96 146.398 48.31 144.328 48.31C142.288 48.31 140.668 46.96 140.668 44.74ZM151.828 44.74C151.828 40.66 148.558 37.72 144.328 37.72C140.098 37.72 136.798 40.66 136.798 44.74C136.798 48.76 140.098 51.73 144.328 51.73C148.558 51.73 151.828 48.76 151.828 44.74ZM144.928 59.95V53.86H140.968V63.1H160.048V59.95H144.928ZM171.656 38.59V41.74H180.386C180.266 43.06 180.056 44.26 179.786 45.43L170.186 45.97L170.696 49.3L178.586 48.58C176.996 51.61 174.326 54.16 170.036 56.41L172.196 59.41C182.096 54.22 184.316 47.08 184.316 38.59H171.656ZM189.416 35.95V46.54H184.256V49.75H189.416V63.58H193.376V35.95H189.416ZM215.424 45.28H204.054V40.39H215.424V45.28ZM219.294 37.24H200.154V48.4H219.294V37.24ZM222.294 51.34H197.274V54.49H203.004V63.67H206.934V54.49H212.724V63.67H216.684V54.49H222.294V51.34ZM229.641 38.56H225.711V56.77H228.171C232.371 56.77 236.961 56.47 241.671 55.48L241.251 52.18C237.201 52.99 233.271 53.29 229.641 53.38V38.56ZM243.381 35.92V63.55H247.341V35.92H243.381ZM256.699 49.03H265.579V45.94H256.699V41.44H266.719V38.23H252.739V57.34H255.139C260.089 57.34 263.959 57.22 268.279 56.56L267.919 53.41C264.139 53.98 260.809 54.13 256.699 54.16V49.03ZM270.289 35.95V63.61H274.279V35.95H270.289ZM295.517 38.08H291.527V42.07C291.527 47.32 289.427 52.69 284.747 54.85L287.207 58.03C290.297 56.47 292.367 53.59 293.567 50.05C294.707 53.38 296.717 56.08 299.747 57.55L302.087 54.4C297.527 52.36 295.517 47.29 295.517 42.07V38.08ZM304.367 35.92V44.59H299.057V47.77H304.367V63.64H308.327V35.92H304.367ZM331.065 35.92V63.64H335.025V35.92H331.065ZM313.485 38.14V57.19H327.105V38.14H323.175V44.83H317.415V38.14H313.485ZM317.415 47.92H323.175V54.04H317.415V47.92ZM363.283 48.94C357.043 47.89 353.623 43.6 353.623 39.55V37.57H349.393V39.55C349.393 43.51 345.943 47.89 339.733 48.94L341.413 52.27C346.213 51.34 349.723 48.64 351.493 45.13C353.263 48.64 356.803 51.31 361.603 52.27L363.283 48.94ZM339.133 57.01V60.22H364.153V57.01H339.133ZM395.921 35.95H391.961V49.87H395.921V35.95ZM383.921 45.91H378.281V40.42H383.921V45.91ZM387.791 37.33H374.381V49.03H387.791V37.33ZM381.461 60.31V58.57H395.921V51.1H377.531V54.13H392.021V55.75H377.561V63.37H396.641V60.31H381.461ZM405.519 48.97H414.489V38.29H401.439V41.44H410.439V45.85H401.469V57.22H403.959C408.969 57.22 413.019 57.04 417.519 56.26L417.099 53.05C413.199 53.71 409.719 53.92 405.519 53.95V48.97ZM419.019 35.92V63.64H422.979V35.92H419.019ZM437.676 41.86H443.376V38.59H427.896V41.86H433.656V43.39C433.656 48.1 431.406 53.17 426.786 55.24L429.036 58.39C432.276 56.92 434.496 53.89 435.726 50.29C436.956 53.62 439.146 56.32 442.356 57.7L444.516 54.58C439.896 52.66 437.676 47.89 437.676 43.39V41.86ZM445.926 35.95V63.58H449.886V35.95H445.926ZM458.637 54.4521H455.121L454.623 39.6719H459.135L458.637 54.4521ZM456.879 56.7666C457.592 56.7666 458.163 56.9766 458.593 57.3965C459.032 57.8164 459.252 58.3535 459.252 59.0078C459.252 59.6523 459.032 60.1846 458.593 60.6045C458.163 61.0244 457.592 61.2344 456.879 61.2344C456.176 61.2344 455.604 61.0244 455.165 60.6045C454.735 60.1846 454.52 59.6523 454.52 59.0078C454.52 58.3633 454.735 57.8311 455.165 57.4111C455.604 56.9814 456.176 56.7666 456.879 56.7666Z" fill="#10902C"/>
<path d="M15.5551 109.744V110.816H20.7551C20.5151 113.248 18.3871 115.12 14.8991 116.064L15.4431 117.104C19.6351 115.952 22.1631 113.376 22.1631 109.744H15.5551ZM16.7391 118.96H24.7551V123.184H26.0671V117.904H16.7391V118.96ZM28.1951 112.464H26.0671V108.816H24.7551V117.248H26.0671V113.552H28.1951V112.464ZM43.0266 114.544H35.9066V112.432H43.0266V114.544ZM44.3386 109.408H43.0266V111.376H35.9066V109.408H34.6106V115.616H44.3386V109.408ZM45.9866 117.344H32.9626V118.4H38.7866V123.2H40.0986V118.4H45.9866V117.344ZM49.1854 111.648H53.2334V110.576H47.8894V119.648H48.8334C50.9774 119.648 52.4334 119.584 54.1454 119.216L54.0334 118.128C52.4654 118.464 51.1054 118.544 49.1854 118.56V111.648ZM58.3054 108.832V114.592H56.2734V109.152H55.0414V122.464H56.2734V115.664H58.3054V123.184H59.5694V108.832H58.3054ZM72.2721 111.904V113.488H68.9601V111.904H72.2721ZM67.6641 114.704H63.7921V112.576H67.6641V114.704ZM68.9601 114.512H72.2721V116.336H73.5841V108.848H72.2721V110.88H68.9601V109.52H67.6641V111.552H63.7921V109.504H62.4961V115.76H68.9601V114.512ZM65.6641 121.952V120.432H73.5841V117.024H64.3361V118.064H72.2881V119.44H64.3681V122.992H74.1281V121.952H65.6641ZM83.3269 120.336V117.632H87.9189V116.576H79.0869V114.256H87.5829V109.888H77.7589V110.96H86.3029V113.2H77.7909V117.632H81.9989V120.336H76.1589V121.408H89.1989V120.336H83.3269ZM95.6624 119.504H104.302V123.296H105.63V118.432H95.6624V119.504ZM101.374 115.984V114.272H105.726V113.216H97.1664V110.464H105.598V109.408H95.8544V114.272H100.062V115.984H94.2224V117.04H107.214V115.984H101.374ZM117.341 114.896C115.069 115.264 113.197 115.344 110.653 115.344V113.408H115.853V109.536H109.325V110.592H114.557V112.4H109.373V116.416H110.525C113.181 116.416 115.133 116.336 117.485 115.952L117.341 114.896ZM119.101 121.92H112.397V120.16H119.101V121.92ZM119.101 119.136H112.397V117.44H111.101V122.992H120.397V117.44H119.101V119.136ZM119.085 108.848V116.72H120.397V108.848H119.085ZM131.484 115.84C129.404 115.104 127.996 113.296 127.996 111.456V110.88H131.148V109.808H123.484V110.88H126.684V111.456C126.684 113.488 125.196 115.408 123.068 116.16L123.756 117.2C125.436 116.576 126.748 115.264 127.356 113.616C127.996 115.104 129.228 116.288 130.828 116.864L131.484 115.84ZM125.244 119.264H133.516V123.2H134.844V118.208H125.244V119.264ZM133.516 108.832V112.576H130.716V113.648H133.516V117.424H134.844V108.832H133.516ZM149.195 108.848H147.883V119.328H149.195V108.848ZM139.035 113.36C139.035 111.968 140.091 110.976 141.483 110.976C142.907 110.976 143.963 111.968 143.963 113.36C143.963 114.784 142.907 115.776 141.483 115.776C140.091 115.776 139.035 114.784 139.035 113.36ZM145.243 113.36C145.243 111.296 143.627 109.84 141.483 109.84C139.355 109.84 137.755 111.296 137.755 113.36C137.755 115.44 139.355 116.912 141.483 116.912C143.627 116.912 145.243 115.44 145.243 113.36ZM141.275 121.792V118.256H139.963V122.864H149.627V121.792H141.275ZM163.418 114.704H160.938C161.418 113.424 161.626 112.064 161.626 110.656H156.09V111.728H160.33C160.09 114.736 158.554 117.312 155.482 119.152L156.25 120.096C158.234 118.912 159.61 117.424 160.474 115.76H163.418V122.464H164.666V109.216H163.418V114.704ZM166.41 108.832V123.184H167.658V108.832H166.41ZM174.953 110.08H173.657V112.656C173.657 115.376 171.913 118.128 169.801 119.136L170.601 120.208C172.281 119.344 173.657 117.552 174.313 115.392C175.001 117.44 176.377 119.136 178.009 119.936L178.793 118.88C176.665 117.92 174.953 115.28 174.953 112.656V110.08ZM180.297 108.832V123.216H181.609V108.832H180.297ZM187.4 111.232H189.688V116.048C188.92 116.096 188.152 116.112 187.4 116.128V111.232ZM193.048 115.776C192.376 115.856 191.672 115.92 190.952 115.968V111.232H192.376V110.176H184.712V111.232H186.12V116.16C185.48 116.176 184.872 116.176 184.312 116.176L184.456 117.264C186.936 117.264 190.28 117.2 193.144 116.752L193.048 115.776ZM187.784 118.416H186.472V122.864H196.04V121.792H187.784V118.416ZM195.4 113.2V108.832H194.088V119.408H195.4V114.288H197.512V113.2H195.4ZM212.807 115.072H210.375V116.144H212.807V118.096H214.135V108.832H212.807V112.288H210.391V113.344H212.807V115.072ZM210.375 110.416H207.079V108.704H205.767V110.416H202.343V111.472H210.375V110.416ZM204.391 114.864C204.391 113.872 205.207 113.216 206.407 113.216C207.607 113.216 208.423 113.872 208.423 114.864C208.423 115.872 207.607 116.528 206.407 116.528C205.207 116.528 204.391 115.872 204.391 114.864ZM209.655 114.864C209.655 113.264 208.311 112.208 206.407 112.208C204.487 112.208 203.159 113.264 203.159 114.864C203.159 116.48 204.487 117.536 206.407 117.536C208.311 117.536 209.655 116.48 209.655 114.864ZM209.431 122.16C207.319 122.16 206.007 121.632 206.007 120.72C206.007 119.792 207.319 119.28 209.431 119.28C211.543 119.28 212.839 119.792 212.839 120.72C212.839 121.632 211.543 122.16 209.431 122.16ZM209.431 118.272C206.455 118.272 204.647 119.152 204.647 120.72C204.647 122.272 206.455 123.168 209.431 123.168C212.391 123.168 214.199 122.272 214.199 120.72C214.199 119.152 212.391 118.272 209.431 118.272ZM227.206 117.328H228.534V108.848H227.206V111.888H224.086V112.96H227.206V117.328ZM225.126 115.632C223.03 114.896 221.638 113.12 221.638 111.072V109.648H220.326V111.12C220.326 113.312 218.902 115.232 216.694 116.016L217.382 117.088C219.11 116.432 220.406 115.136 221.014 113.44C221.638 114.928 222.854 116.064 224.422 116.656L225.126 115.632ZM223.798 122.128C221.638 122.128 220.326 121.504 220.326 120.464C220.326 119.408 221.638 118.784 223.798 118.784C225.958 118.784 227.27 119.408 227.27 120.464C227.27 121.504 225.958 122.128 223.798 122.128ZM223.798 117.76C220.854 117.76 219.014 118.736 219.014 120.464C219.014 122.176 220.854 123.168 223.798 123.168C226.742 123.168 228.582 122.176 228.582 120.464C228.582 118.736 226.742 117.76 223.798 117.76ZM237.589 110.064C239.941 110.064 241.285 110.608 241.285 111.568C241.285 112.528 239.941 113.072 237.589 113.072C235.237 113.072 233.893 112.528 233.893 111.568C233.893 110.608 235.237 110.064 237.589 110.064ZM237.589 114.048C240.741 114.048 242.629 113.184 242.629 111.568C242.629 109.952 240.741 109.072 237.589 109.072C234.437 109.072 232.549 109.952 232.549 111.568C232.549 113.184 234.437 114.048 237.589 114.048ZM233.989 120.544H242.421V117.312H232.661V118.304H241.125V119.584H232.709V123.024H242.853V122H233.989V120.544ZM231.093 115.024V116.08H244.085V115.024H231.093ZM255.636 122.176C253.332 122.176 252.036 121.728 252.036 120.864C252.036 120.016 253.332 119.552 255.636 119.552C257.956 119.552 259.236 120.016 259.236 120.864C259.236 121.728 257.956 122.176 255.636 122.176ZM255.636 118.576C252.516 118.576 250.724 119.376 250.724 120.864C250.724 122.368 252.516 123.168 255.636 123.168C258.756 123.168 260.548 122.368 260.548 120.864C260.548 119.376 258.756 118.576 255.636 118.576ZM256.292 116.432V115.024H260.612V114H252.164V112.592H260.148V111.6H252.164V110.272H260.532V109.248H250.852V115.024H254.98V116.432H249.14V117.488H262.132V116.432H256.292ZM267.107 118.768C265.987 118.768 265.203 117.856 265.203 116.576C265.203 115.328 265.987 114.416 267.107 114.416C268.211 114.416 269.011 115.328 269.011 116.576C269.011 117.856 268.211 118.768 267.107 118.768ZM267.107 113.312C265.331 113.312 264.035 114.656 264.035 116.576C264.035 118.528 265.331 119.856 267.107 119.856C268.883 119.856 270.179 118.528 270.179 116.576C270.179 114.656 268.883 113.312 267.107 113.312ZM267.747 109.248H266.451V111.28H263.539V112.352H270.659V111.28H267.747V109.248ZM274.451 108.816V114.88H272.611V109.152H271.379V122.48H272.611V115.952H274.451V123.168H275.715V108.816H274.451ZM291.122 114.048H285.058V112.528H291.122V114.048ZM293.202 109.2H291.122V110.88H285.058V109.2H282.962V115.728H293.202V109.2ZM294.786 117.12H281.442V118.8H287.01V123.392H289.122V118.8H294.786V117.12ZM298.337 112.048H301.713V110.336H296.257V120.064H297.281C299.169 120.064 300.737 120 302.529 119.664L302.369 117.952C300.961 118.208 299.713 118.288 298.337 118.32V112.048ZM306.481 108.624V114.304H305.153V108.912H303.185V122.688H305.153V116H306.481V123.376H308.481V108.624H306.481ZM322.592 115.168C320.272 114.448 319.28 112.72 319.28 110.944V109.44H317.136V110.768C317.136 112.768 316.144 114.736 313.68 115.552L314.784 117.216C316.464 116.624 317.6 115.488 318.24 114.048C318.864 115.296 319.936 116.288 321.488 116.8L322.592 115.168ZM320.688 121.744C318.8 121.744 317.792 121.36 317.792 120.528C317.792 119.712 318.8 119.328 320.688 119.328C322.56 119.328 323.568 119.712 323.568 120.528C323.568 121.36 322.56 121.744 320.688 121.744ZM320.688 117.696C317.616 117.696 315.696 118.752 315.696 120.528C315.696 122.32 317.616 123.376 320.688 123.376C323.744 123.376 325.664 122.32 325.664 120.528C325.664 118.752 323.744 117.696 320.688 117.696ZM325.504 112.064V108.656H323.392V117.36H325.504V113.808H327.456V112.064H325.504ZM336.863 109.696H333.743V108.528H331.631V109.696H328.495V111.216H336.863V109.696ZM331.087 113.696C331.087 113.2 331.679 112.944 332.687 112.944C333.695 112.944 334.271 113.2 334.271 113.696C334.271 114.192 333.695 114.432 332.687 114.432C331.679 114.432 331.087 114.192 331.087 113.696ZM337.231 116.208C336.111 116.352 334.943 116.432 333.743 116.496V115.728C335.311 115.504 336.271 114.768 336.271 113.696C336.271 112.368 334.863 111.584 332.687 111.584C330.495 111.584 329.087 112.368 329.087 113.696C329.087 114.784 330.047 115.504 331.631 115.744V116.576C330.367 116.608 329.183 116.608 328.127 116.608L328.351 118.208C330.927 118.208 334.303 118.176 337.375 117.616L337.231 116.208ZM335.039 121.872C333.055 121.872 332.159 121.632 332.159 121.072C332.159 120.512 333.055 120.256 335.055 120.256C337.055 120.256 337.951 120.512 337.951 121.072C337.951 121.632 337.055 121.872 335.039 121.872ZM335.055 118.736C331.887 118.736 330.031 119.552 330.031 121.072C330.031 122.592 331.887 123.392 335.055 123.392C338.223 123.392 340.079 122.592 340.079 121.072C340.079 119.552 338.223 118.736 335.055 118.736ZM339.983 112.816V108.64H337.871V118.576H339.983V114.56H341.839V112.816H339.983ZM346.014 118.4C345.214 118.4 344.734 117.296 344.734 115.024C344.734 112.768 345.214 111.664 346.014 111.664C346.83 111.664 347.294 112.768 347.294 115.024C347.294 117.296 346.83 118.4 346.014 118.4ZM350.35 114.064H349.182C348.942 111.312 347.758 109.68 346.014 109.68C344.062 109.68 342.83 111.696 342.83 115.024C342.83 118.368 344.062 120.384 346.014 120.384C347.806 120.384 349.006 118.656 349.198 115.776H350.35V122.72H352.318V108.88H350.35V114.064ZM353.342 108.624V123.36H355.342V108.624H353.342ZM366.141 114.4H363.261V111.248H366.141V114.4ZM368.221 109.584H361.197V116.08H368.221V109.584ZM372.557 119.232V117.584H362.685V119.232H366.413C366.109 120.352 364.701 121.424 362.045 121.728L362.813 123.328C365.165 123.024 366.797 122.096 367.629 120.864C368.477 122.096 370.093 123.056 372.429 123.344L373.197 121.744C370.573 121.424 369.165 120.32 368.829 119.232H372.557ZM372.365 111.84V108.64H370.253V116.88H372.365V113.568H374.317V111.84H372.365ZM387.036 112.624H378.924V109.168H376.812V114.304H387.036V112.624ZM378.796 118.672H376.668V123.056H387.116V121.376H378.796V118.672ZM375.164 115.808V117.504H388.508V115.808H375.164ZM393.963 110.048V111.728H398.619C398.555 112.432 398.443 113.072 398.299 113.696L393.179 113.984L393.451 115.76L397.659 115.376C396.811 116.992 395.387 118.352 393.099 119.552L394.251 121.152C399.531 118.384 400.715 114.576 400.715 110.048H393.963ZM403.435 108.64V114.288H400.683V116H403.435V123.376H405.547V108.64H403.435ZM417.306 113.616H411.242V111.008H417.306V113.616ZM419.37 109.328H409.162V115.28H419.37V109.328ZM420.97 116.848H407.626V118.528H410.682V123.424H412.778V118.528H415.866V123.424H417.978V118.528H420.97V116.848ZM424.888 110.032H422.792V119.744H424.104C426.344 119.744 428.792 119.584 431.304 119.056L431.08 117.296C428.92 117.728 426.824 117.888 424.888 117.936V110.032ZM432.216 108.624V123.36H434.328V108.624H432.216ZM439.319 115.616H444.055V113.968H439.319V111.568H444.663V109.856H437.207V120.048H438.487C441.127 120.048 443.191 119.984 445.495 119.632L445.303 117.952C443.287 118.256 441.511 118.336 439.319 118.352V115.616ZM446.567 108.64V123.392H448.695V108.64H446.567ZM461.03 111.344H452.646V114.416H462.582V113.472H453.942V112.24H462.326V109.248H452.614V110.176H461.03V111.344ZM453.862 120.72H462.374V117.664H452.534V118.608H461.078V119.808H452.566V122.992H462.822V122.048H453.862V120.72ZM450.982 115.504V116.496H463.99V115.504H450.982ZM479.525 115.072H477.093V116.144H479.525V118.096H480.853V108.832H479.525V112.288H477.109V113.344H479.525V115.072ZM477.093 110.416H473.797V108.704H472.485V110.416H469.061V111.472H477.093V110.416ZM471.109 114.864C471.109 113.872 471.925 113.216 473.125 113.216C474.325 113.216 475.141 113.872 475.141 114.864C475.141 115.872 474.325 116.528 473.125 116.528C471.925 116.528 471.109 115.872 471.109 114.864ZM476.373 114.864C476.373 113.264 475.029 112.208 473.125 112.208C471.205 112.208 469.877 113.264 469.877 114.864C469.877 116.48 471.205 117.536 473.125 117.536C475.029 117.536 476.373 116.48 476.373 114.864ZM476.149 122.16C474.037 122.16 472.725 121.632 472.725 120.72C472.725 119.792 474.037 119.28 476.149 119.28C478.261 119.28 479.557 119.792 479.557 120.72C479.557 121.632 478.261 122.16 476.149 122.16ZM476.149 118.272C473.173 118.272 471.365 119.152 471.365 120.72C471.365 122.272 473.173 123.168 476.149 123.168C479.109 123.168 480.917 122.272 480.917 120.72C480.917 119.152 479.109 118.272 476.149 118.272ZM493.924 117.328H495.252V108.848H493.924V111.888H490.804V112.96H493.924V117.328ZM491.844 115.632C489.748 114.896 488.356 113.12 488.356 111.072V109.648H487.044V111.12C487.044 113.312 485.62 115.232 483.412 116.016L484.1 117.088C485.828 116.432 487.124 115.136 487.732 113.44C488.356 114.928 489.572 116.064 491.14 116.656L491.844 115.632ZM490.516 122.128C488.356 122.128 487.044 121.504 487.044 120.464C487.044 119.408 488.356 118.784 490.516 118.784C492.676 118.784 493.988 119.408 493.988 120.464C493.988 121.504 492.676 122.128 490.516 122.128ZM490.516 117.76C487.572 117.76 485.732 118.736 485.732 120.464C485.732 122.176 487.572 123.168 490.516 123.168C493.46 123.168 495.3 122.176 495.3 120.464C495.3 118.736 493.46 117.76 490.516 117.76ZM502.035 118.896C500.739 118.896 499.795 117.968 499.795 116.688C499.795 115.392 500.739 114.464 502.035 114.464C503.347 114.464 504.291 115.392 504.291 116.688C504.291 117.968 503.347 118.896 502.035 118.896ZM502.035 113.376C500.019 113.376 498.563 114.752 498.563 116.688C498.563 118.64 500.019 119.984 502.035 119.984C504.083 119.984 505.539 118.64 505.539 116.688C505.539 114.752 504.083 113.376 502.035 113.376ZM502.675 109.008H501.363V111.136H497.747V112.192H506.211V111.136H502.675V109.008ZM511.235 114.736H508.883V108.848H507.571V123.184H508.883V115.84H511.235V114.736ZM522.354 111.696C522.354 113.424 522.354 115.44 521.81 118.192L523.122 118.336C523.666 115.44 523.666 113.472 523.666 111.696V110.272H513.602V111.344H522.354V111.696ZM518.594 120.096V114.96H517.282V120.096H512.242V121.168H525.218V120.096H518.594ZM526.823 124.266L526.003 123.703C526.492 123.021 526.748 122.318 526.768 121.594V120.289H528.182V121.422C528.182 121.948 528.052 122.474 527.792 123C527.537 123.526 527.214 123.948 526.823 124.266ZM63.3647 139.704H60.8847C61.3647 138.424 61.5727 137.064 61.5727 135.656H56.0367V136.728H60.2767C60.0367 139.736 58.5007 142.312 55.4287 144.152L56.1967 145.096C58.1807 143.912 59.5567 142.424 60.4207 140.76H63.3647V147.464H64.6127V134.216H63.3647V139.704ZM66.3567 133.832V148.184H67.6047V133.832H66.3567ZM74.8994 135.08H73.6034V137.656C73.6034 140.376 71.8594 143.128 69.7474 144.136L70.5474 145.208C72.2274 144.344 73.6034 142.552 74.2594 140.392C74.9474 142.44 76.3234 144.136 77.9554 144.936L78.7394 143.88C76.6114 142.92 74.8994 140.28 74.8994 137.656V135.08ZM80.2434 133.832V148.216H81.5554V133.832H80.2434ZM87.3462 136.232H89.6342V141.048C88.8662 141.096 88.0982 141.112 87.3462 141.128V136.232ZM92.9942 140.776C92.3222 140.856 91.6182 140.92 90.8982 140.968V136.232H92.3222V135.176H84.6582V136.232H86.0662V141.16C85.4262 141.176 84.8182 141.176 84.2582 141.176L84.4022 142.264C86.8822 142.264 90.2262 142.2 93.0902 141.752L92.9942 140.776ZM87.7302 143.416H86.4182V147.864H95.9862V146.792H87.7302V143.416ZM95.3462 138.2V133.832H94.0342V144.408H95.3462V139.288H97.4582V138.2H95.3462ZM98.8078 149.266L97.9875 148.703C98.4771 148.021 98.7323 147.318 98.7531 146.594V145.289H100.167V146.422C100.167 146.948 100.037 147.474 99.7766 148C99.5213 148.526 99.1984 148.948 98.8078 149.266ZM114.038 138.2H115.926V141.384H117.19V133.848H115.926V137.128H114.038V134.104H112.79V141.272H114.038V138.2ZM105.878 134.648V135.704H110.15C110.102 136.216 109.99 136.696 109.814 137.16L105.206 137.464L105.414 138.52L109.334 138.12C108.55 139.32 107.222 140.328 105.27 141.032L105.862 141.992C109.702 140.536 111.462 138.024 111.462 134.648H105.878ZM109.046 146.968V145.416H117.19V142.056H107.718V143.08H115.894V144.44H107.75V147.992H117.734V146.968H109.046ZM131.237 133.848H129.925V144.408H131.237V133.848ZM128.213 140.824C126.005 141.208 124.133 141.304 121.509 141.304V139H126.709V134.856H120.181V135.912H125.413V138.008H120.229V142.376H121.381C124.133 142.376 126.053 142.28 128.341 141.896L128.213 140.824ZM123.189 146.792V143.592H121.877V147.864H131.637V146.792H123.189ZM135.908 136.28H141.124V135.192H134.596V144.664H135.7C138.42 144.664 140.148 144.568 142.228 144.184L142.068 143.096C140.132 143.464 138.452 143.56 135.908 143.56V136.28ZM144.388 133.832V139.032H140.276V140.12H144.388V148.216H145.7V133.832H144.388ZM148.473 149.266L147.653 148.703C148.143 148.021 148.398 147.318 148.419 146.594V145.289H149.833V146.422C149.833 146.948 149.703 147.474 149.442 148C149.187 148.526 148.864 148.948 148.473 149.266ZM159.496 143.288H156.488V136.536H159.496V143.288ZM162.84 139.24H160.712V135.496H155.256V144.328H160.712V140.328H162.84V147.464H164.088V134.152H162.84V139.24ZM165.688 133.832V148.168H166.936V133.832H165.688ZM174.231 135.08H172.935V137.656C172.935 140.376 171.191 143.128 169.079 144.136L169.879 145.208C171.559 144.344 172.935 142.552 173.591 140.392C174.279 142.44 175.655 144.136 177.287 144.936L178.071 143.88C175.943 142.92 174.231 140.28 174.231 137.656V135.08ZM179.575 133.832V148.216H180.887V133.832H179.575ZM188.661 136.392H192.037V135.304H184.021V136.392H187.349V138.216C187.349 140.696 185.605 143.4 183.541 144.376L184.309 145.432C185.941 144.6 187.349 142.792 188.005 140.696C188.693 142.664 190.101 144.312 191.765 145.08L192.501 144.024C190.389 143.128 188.661 140.648 188.661 138.216V136.392ZM193.973 133.848V148.184H195.285V133.848H193.973ZM202.437 135.384V136.44H207.829C207.557 139.848 205.637 142.6 201.781 144.44L202.485 145.512C207.253 143.176 209.157 139.528 209.157 135.384H202.437ZM212.053 133.832V148.184H213.365V133.832H212.053ZM227.492 137.832H219.06V134.136H217.748V138.888H227.492V137.832ZM222.468 147.112C220.212 147.112 218.884 146.52 218.884 145.528C218.884 144.504 220.212 143.928 222.468 143.928C224.724 143.928 226.052 144.504 226.052 145.528C226.052 146.52 224.708 147.112 222.468 147.112ZM222.468 142.904C219.412 142.904 217.556 143.848 217.556 145.528C217.556 147.192 219.412 148.136 222.468 148.136C225.524 148.136 227.38 147.192 227.38 145.528C227.38 143.848 225.524 142.904 222.468 142.904ZM216.004 140.552V141.624H228.98V140.552H216.004ZM236.866 135.064C239.218 135.064 240.562 135.608 240.562 136.568C240.562 137.528 239.218 138.072 236.866 138.072C234.514 138.072 233.17 137.528 233.17 136.568C233.17 135.608 234.514 135.064 236.866 135.064ZM236.866 139.048C240.018 139.048 241.906 138.184 241.906 136.568C241.906 134.952 240.018 134.072 236.866 134.072C233.714 134.072 231.826 134.952 231.826 136.568C231.826 138.184 233.714 139.048 236.866 139.048ZM233.266 145.544H241.698V142.312H231.938V143.304H240.402V144.584H231.986V148.024H242.13V147H233.266V145.544ZM230.37 140.024V141.08H243.362V140.024H230.37ZM254.914 147.176C252.61 147.176 251.314 146.728 251.314 145.864C251.314 145.016 252.61 144.552 254.914 144.552C257.234 144.552 258.514 145.016 258.514 145.864C258.514 146.728 257.234 147.176 254.914 147.176ZM254.914 143.576C251.794 143.576 250.002 144.376 250.002 145.864C250.002 147.368 251.794 148.168 254.914 148.168C258.034 148.168 259.826 147.368 259.826 145.864C259.826 144.376 258.034 143.576 254.914 143.576ZM255.57 141.432V140.024H259.89V139H251.442V137.592H259.426V136.6H251.442V135.272H259.81V134.248H250.13V140.024H254.258V141.432H248.418V142.488H261.41V141.432H255.57ZM266.385 143.768C265.265 143.768 264.481 142.856 264.481 141.576C264.481 140.328 265.265 139.416 266.385 139.416C267.489 139.416 268.289 140.328 268.289 141.576C268.289 142.856 267.489 143.768 266.385 143.768ZM266.385 138.312C264.609 138.312 263.313 139.656 263.313 141.576C263.313 143.528 264.609 144.856 266.385 144.856C268.161 144.856 269.457 143.528 269.457 141.576C269.457 139.656 268.161 138.312 266.385 138.312ZM267.025 134.248H265.729V136.28H262.817V137.352H269.937V136.28H267.025V134.248ZM273.729 133.816V139.88H271.889V134.152H270.657V147.48H271.889V140.952H273.729V148.168H274.993V133.816H273.729ZM284.448 143.848H282.336V148.12H292.544V146.44H284.448V143.848ZM284.224 137.048C284.224 136.152 285.408 135.672 287.376 135.672C289.36 135.672 290.544 136.152 290.544 137.048C290.544 137.96 289.36 138.408 287.376 138.408C285.408 138.408 284.224 137.96 284.224 137.048ZM288.416 141.224V140.04C291.04 139.816 292.72 138.696 292.72 137.048C292.72 135.176 290.592 134.008 287.376 134.008C284.176 134.008 282.048 135.176 282.048 137.048C282.048 138.696 283.712 139.8 286.304 140.04V141.224H280.72V142.904H294.032V141.224H288.416ZM297.807 140.584H302.479V134.888H295.711V136.568H300.399V138.92H295.727V145H296.975C299.535 145 301.567 144.904 303.775 144.504L303.583 142.792C301.663 143.128 299.919 143.24 297.807 143.256V140.584ZM308.799 139.192H306.687V133.624H304.575V148.408H306.687V140.936H308.799V139.192ZM321.758 133.656H319.63V144.232H321.758V133.656ZM311.79 138.328C311.79 137.112 312.654 136.408 313.742 136.408C314.846 136.408 315.678 137.112 315.678 138.328C315.678 139.512 314.846 140.232 313.742 140.232C312.654 140.232 311.79 139.512 311.79 138.328ZM317.742 138.328C317.742 136.152 315.998 134.584 313.742 134.584C311.486 134.584 309.726 136.152 309.726 138.328C309.726 140.472 311.486 142.056 313.742 142.056C315.998 142.056 317.742 140.472 317.742 138.328ZM314.062 146.44V143.192H311.95V148.12H322.126V146.44H314.062ZM332.604 140.168C330.284 139.448 329.292 137.72 329.292 135.944V134.44H327.148V135.768C327.148 137.768 326.156 139.736 323.692 140.552L324.796 142.216C326.476 141.624 327.612 140.488 328.252 139.048C328.876 140.296 329.948 141.288 331.5 141.8L332.604 140.168ZM330.7 146.744C328.812 146.744 327.804 146.36 327.804 145.528C327.804 144.712 328.812 144.328 330.7 144.328C332.572 144.328 333.58 144.712 333.58 145.528C333.58 146.36 332.572 146.744 330.7 146.744ZM330.7 142.696C327.628 142.696 325.708 143.752 325.708 145.528C325.708 147.32 327.628 148.376 330.7 148.376C333.756 148.376 335.676 147.32 335.676 145.528C335.676 143.752 333.756 142.696 330.7 142.696ZM335.516 137.064V133.656H333.404V142.36H335.516V138.808H337.468V137.064H335.516ZM343.051 134.616C340.747 134.616 339.003 136.136 339.003 138.248C339.003 140.376 340.747 141.88 343.051 141.88C345.355 141.88 347.115 140.376 347.115 138.248C347.115 136.136 345.355 134.616 343.051 134.616ZM343.051 136.424C344.187 136.424 345.051 137.096 345.051 138.248C345.051 139.4 344.187 140.072 343.051 140.072C341.915 140.072 341.051 139.4 341.051 138.248C341.051 137.096 341.915 136.424 343.051 136.424ZM348.491 133.624V148.408H350.603V133.624H348.491ZM338.651 145.416C341.195 145.416 344.651 145.384 347.819 144.744L347.691 143.224C344.587 143.688 340.971 143.704 338.379 143.704L338.651 145.416ZM366.058 139.048H359.994V137.528H366.058V139.048ZM368.138 134.2H366.058V135.88H359.994V134.2H357.898V140.728H368.138V134.2ZM369.722 142.12H356.378V143.8H361.946V148.392H364.058V143.8H369.722V142.12ZM373.273 137.048H376.649V135.336H371.193V145.064H372.217C374.105 145.064 375.673 145 377.465 144.664L377.305 142.952C375.897 143.208 374.649 143.288 373.273 143.32V137.048ZM381.417 133.624V139.304H380.089V133.912H378.121V147.688H380.089V141H381.417V148.376H383.417V133.624H381.417ZM397.4 134.568H394.28V133.528H392.168V134.568H389.032V135.96H397.4V134.568ZM391.624 138.168C391.624 137.752 392.216 137.544 393.224 137.544C394.232 137.544 394.808 137.752 394.808 138.168C394.808 138.6 394.232 138.824 393.224 138.824C392.216 138.824 391.624 138.6 391.624 138.168ZM397.768 140.344C396.648 140.472 395.464 140.568 394.28 140.632V140.04C395.848 139.848 396.808 139.176 396.808 138.168C396.808 136.968 395.416 136.248 393.224 136.248C391.032 136.248 389.624 136.968 389.624 138.168C389.624 139.176 390.584 139.848 392.168 140.04V140.712C390.904 140.744 389.72 140.744 388.664 140.744L388.872 142.184C391.416 142.184 394.824 142.152 397.912 141.608L397.768 140.344ZM392.728 146.168H400.52V142.84H390.616V144.232H398.44V144.872H390.632V148.264H401.032V146.872H392.728V146.168ZM400.52 137.112V133.624H398.408V142.312H400.52V138.84H402.376V137.112H400.52ZM409.863 146.792C407.895 146.792 406.887 146.456 406.887 145.688C406.887 144.92 407.895 144.568 409.863 144.568C411.831 144.568 412.839 144.92 412.839 145.688C412.839 146.456 411.831 146.792 409.863 146.792ZM409.863 142.968C406.679 142.968 404.759 143.944 404.759 145.688C404.759 147.416 406.679 148.392 409.863 148.392C413.047 148.392 414.983 147.416 414.983 145.688C414.983 143.944 413.047 142.968 409.863 142.968ZM410.967 140.568V139.352H415.063V137.672H406.967V135.944H414.983V134.264H404.871V139.352H408.855V140.568H403.255V142.248H416.583V140.568H410.967ZM428.23 133.832V148.216H429.542V133.832H428.23ZM421.974 134.936C419.846 134.936 418.326 136.888 418.326 139.944C418.326 143 419.846 144.952 421.974 144.952C424.102 144.952 425.622 143 425.622 139.944C425.622 136.888 424.102 134.936 421.974 134.936ZM421.974 136.12C423.366 136.12 424.358 137.624 424.358 139.944C424.358 142.28 423.366 143.784 421.974 143.784C420.566 143.784 419.574 142.28 419.574 139.944C419.574 137.624 420.566 136.12 421.974 136.12ZM436.613 135.368V136.456H441.877C441.573 139.848 439.605 142.6 435.941 144.44L436.661 145.464C441.301 143.144 443.173 139.448 443.173 135.368H436.613ZM449.189 139.656H446.885V133.832H445.573V148.184H446.885V140.744H449.189V139.656ZM461.748 137.832H453.316V134.136H452.004V138.888H461.748V137.832ZM456.724 147.112C454.468 147.112 453.14 146.52 453.14 145.528C453.14 144.504 454.468 143.928 456.724 143.928C458.98 143.928 460.308 144.504 460.308 145.528C460.308 146.52 458.964 147.112 456.724 147.112ZM456.724 142.904C453.668 142.904 451.812 143.848 451.812 145.528C451.812 147.192 453.668 148.136 456.724 148.136C459.78 148.136 461.636 147.192 461.636 145.528C461.636 143.848 459.78 142.904 456.724 142.904ZM450.26 140.552V141.624H463.236V140.552H450.26ZM468.851 143.896C467.555 143.896 466.611 142.968 466.611 141.688C466.611 140.392 467.555 139.464 468.851 139.464C470.163 139.464 471.107 140.392 471.107 141.688C471.107 142.968 470.163 143.896 468.851 143.896ZM468.851 138.376C466.835 138.376 465.379 139.752 465.379 141.688C465.379 143.64 466.835 144.984 468.851 144.984C470.899 144.984 472.355 143.64 472.355 141.688C472.355 139.752 470.899 138.376 468.851 138.376ZM469.491 134.008H468.179V136.136H464.563V137.192H473.027V136.136H469.491V134.008ZM478.051 139.736H475.699V133.848H474.387V148.184H475.699V140.84H478.051V139.736ZM486.145 141.224V138.344H489.553V141.224H486.145ZM484.849 143.512H480.897V136.28H484.849V143.512ZM489.553 133.832V137.272H486.145V135.24H479.617V144.552H486.145V142.296H489.553V148.216H490.865V133.832H489.553ZM493.639 149.266L492.819 148.703C493.308 148.021 493.564 147.318 493.584 146.594V145.289H494.998V146.422C494.998 146.948 494.868 147.474 494.608 148C494.353 148.526 494.03 148.948 493.639 149.266ZM74.2952 166.256H75.6232V158.848H74.2952V161.44H71.1752V162.512H74.2952V166.256ZM72.1832 164.928C70.1192 164.24 68.6632 162.496 68.6632 160.624V159.296H67.3672V160.624C67.3672 162.704 65.9432 164.512 63.7832 165.248L64.4712 166.288C66.1512 165.664 67.4472 164.416 68.0552 162.8C68.6792 164.256 69.9272 165.392 71.5112 165.952L72.1832 164.928ZM67.7032 171.952V170.416H75.6232V166.976H66.3752V168.016H74.3272V169.424H66.4072V172.992H76.1672V171.952H67.7032ZM88.214 163.488H81.142V160.56H88.214V163.488ZM89.51 159.504H79.862V164.544H89.51V159.504ZM81.142 168.768H79.83V172.864H89.75V171.792H81.142V168.768ZM78.166 166.176V167.232H84.134V170.128H85.446V167.232H91.206V166.176H78.166ZM97.4295 167.296C99.5895 166.832 101.845 165.408 102.757 163.424C103.669 165.392 105.941 166.8 108.134 167.232L108.661 166.176C106.165 165.776 103.429 163.808 103.429 161.52V161.216H108.181V160.144H97.3175V161.216H102.069V161.52C102.069 163.808 99.3495 165.808 96.8695 166.224L97.4295 167.296ZM103.413 170.256V166.784H102.101V170.256H96.2455V171.344H109.269V170.256H103.413ZM115.46 160.08H114.164V162.656C114.164 165.264 112.532 168.016 110.468 169.072L111.252 170.128C112.868 169.264 114.196 167.472 114.82 165.376C115.476 167.344 116.772 169.024 118.292 169.84L119.108 168.8C117.092 167.792 115.46 165.184 115.46 162.656V160.08ZM124.052 164.656H121.684V158.848H120.372V173.184H121.684V165.744H124.052V164.656ZM125.242 174.266L124.422 173.703C124.911 173.021 125.166 172.318 125.187 171.594V170.289H126.601V171.422C126.601 171.948 126.471 172.474 126.211 173C125.955 173.526 125.632 173.948 125.242 174.266ZM143.288 158.848H141.976V169.328H143.288V158.848ZM133.128 163.36C133.128 161.968 134.184 160.976 135.576 160.976C137 160.976 138.056 161.968 138.056 163.36C138.056 164.784 137 165.776 135.576 165.776C134.184 165.776 133.128 164.784 133.128 163.36ZM139.336 163.36C139.336 161.296 137.72 159.84 135.576 159.84C133.448 159.84 131.848 161.296 131.848 163.36C131.848 165.44 133.448 166.912 135.576 166.912C137.72 166.912 139.336 165.44 139.336 163.36ZM135.368 171.792V168.256H134.056V172.864H143.72V171.792H135.368ZM153.431 167.312V168.288H156.343V169.76H157.655V158.832H156.343V167.312H153.431ZM150.503 160.384C151.863 160.384 152.791 160.992 152.791 161.904C152.791 162.832 151.863 163.44 150.503 163.44C149.143 163.44 148.215 162.832 148.215 161.904C148.215 160.992 149.143 160.384 150.503 160.384ZM150.503 164.416C152.599 164.416 154.039 163.44 154.039 161.904C154.039 160.4 152.599 159.408 150.503 159.408C148.407 159.408 146.967 160.4 146.967 161.904C146.967 163.44 148.407 164.416 150.503 164.416ZM149.991 169.248H151.303V166.416C152.599 166.336 153.927 166.192 155.191 166L155.079 165.056C152.039 165.44 148.487 165.472 145.831 165.472L146.007 166.56C147.191 166.56 148.567 166.544 149.991 166.48V169.248ZM149.191 171.792V168.688H147.879V172.864H158.023V171.792H149.191ZM166.759 161.072H174.103V165.728H166.759V161.072ZM171.111 170.256V166.768H175.383V160.032H165.495V166.768H169.783V170.256H163.959V171.344H176.967V170.256H171.111ZM187.141 165.376C185.029 164.72 183.525 163.04 183.525 161.152V160.832H186.773V159.76H178.901V160.832H182.181V161.152C182.181 163.12 180.709 164.912 178.533 165.6L179.205 166.64C180.917 166.048 182.245 164.8 182.869 163.216C183.525 164.704 184.853 165.856 186.501 166.384L187.141 165.376ZM188.837 171.92H182.181V170.064H188.837V171.92ZM188.837 169.04H182.181V167.296H180.885V172.992H190.133V167.296H188.837V169.04ZM188.821 158.832V166.608H190.133V158.832H188.821ZM192.955 174.266L192.135 173.703C192.624 173.021 192.879 172.318 192.9 171.594V170.289H194.314V171.422C194.314 171.948 194.184 172.474 193.924 173C193.669 173.526 193.346 173.948 192.955 174.266ZM204.314 160.08H203.018V162.656C203.018 165.376 201.274 168.128 199.162 169.136L199.962 170.208C201.642 169.344 203.018 167.552 203.674 165.392C204.362 167.44 205.738 169.136 207.37 169.936L208.154 168.88C206.026 167.92 204.314 165.28 204.314 162.656V160.08ZM209.658 158.832V173.216H210.97V158.832H209.658ZM224.12 166.256H225.448V158.848H224.12V161.44H221V162.512H224.12V166.256ZM222.008 164.928C219.944 164.24 218.488 162.496 218.488 160.624V159.296H217.192V160.624C217.192 162.704 215.768 164.512 213.608 165.248L214.296 166.288C215.976 165.664 217.272 164.416 217.88 162.8C218.504 164.256 219.752 165.392 221.336 165.952L222.008 164.928ZM217.528 171.952V170.416H225.448V166.976H216.2V168.016H224.152V169.424H216.232V172.992H225.992V171.952H217.528ZM234.199 166.672C234.279 166.16 234.327 165.632 234.327 165.024C234.327 164.416 234.279 163.888 234.199 163.376H236.151V166.672H234.199ZM231.255 168.816C230.119 168.816 229.383 167.36 229.383 165.024C229.383 162.704 230.119 161.248 231.255 161.248C232.407 161.248 233.127 162.704 233.127 165.024C233.127 167.36 232.407 168.816 231.255 168.816ZM236.151 162.304H233.927C233.431 160.864 232.503 160.032 231.255 160.032C229.399 160.032 228.199 161.952 228.199 165.024C228.199 168.112 229.399 170.032 231.255 170.032C232.503 170.032 233.415 169.2 233.927 167.76H236.151V172.48H237.399V159.152H236.151V162.304ZM238.967 158.832V173.184H240.215V158.832H238.967ZM243.974 163.088C243.974 161.728 244.998 160.8 246.438 160.8C247.862 160.8 248.902 161.728 248.902 163.088C248.902 164.432 247.862 165.376 246.438 165.376C244.998 165.376 243.974 164.432 243.974 163.088ZM250.182 163.088C250.182 161.072 248.598 159.696 246.438 159.696C244.262 159.696 242.694 161.072 242.694 163.088C242.694 165.088 244.262 166.48 246.438 166.48C248.598 166.48 250.182 165.088 250.182 163.088ZM244.23 169.104H252.246V173.184H253.558V168.032H244.23V169.104ZM255.638 162.112V161.024H253.558V158.848H252.246V167.36H253.558V165.168H255.638V164.096H253.558V162.112H255.638ZM271.941 163.232H263.413V160.464H271.845V159.408H262.101V164.288H271.941V163.232ZM266.949 172.144C264.693 172.144 263.365 171.584 263.365 170.576C263.365 169.568 264.693 169.008 266.949 169.008C269.205 169.008 270.533 169.568 270.533 170.576C270.533 171.584 269.189 172.144 266.949 172.144ZM266.949 167.984C263.893 167.984 262.037 168.912 262.037 170.576C262.037 172.24 263.893 173.168 266.949 173.168C270.005 173.168 271.861 172.24 271.861 170.576C271.861 168.912 270.005 167.984 266.949 167.984ZM260.469 165.664V166.752H273.461V165.664H260.469ZM288.565 169.504H290.677V158.64H288.565V161.216H286.773V162.912H288.565V164.192H286.773V165.888H288.565V169.504ZM281.925 161.376H283.301V165.92C282.837 165.952 282.373 165.968 281.925 165.968V161.376ZM286.677 165.68C286.245 165.728 285.797 165.776 285.333 165.808V161.376H286.501V159.696H278.725V161.376H279.893V166.016C279.349 166.016 278.837 166.016 278.357 166.016L278.581 167.728C280.901 167.728 284.069 167.68 286.805 167.216L286.677 165.68ZM283.077 171.44V168.688H280.965V173.12H291.013V171.44H283.077ZM295.7 165.584H300.484V159.888H293.524V161.568H298.324V163.92H293.54V169.984H294.868C297.54 169.984 299.7 169.888 302.1 169.472L301.876 167.76C299.796 168.112 297.94 168.224 295.7 168.24V165.584ZM302.9 158.624V173.408H305.012V158.624H302.9ZM315.842 160.192H312.546V158.624H310.418V160.192H307.154V161.84H315.826L315.842 160.192ZM309.89 165.2C309.89 164.4 310.546 163.968 311.49 163.968C312.418 163.968 313.09 164.4 313.09 165.2C313.09 166.016 312.418 166.448 311.49 166.448C310.546 166.448 309.89 166.016 309.89 165.2ZM315.106 165.2C315.106 163.536 313.602 162.368 311.49 162.368C309.378 162.368 307.874 163.536 307.874 165.2C307.874 166.896 309.378 168.048 311.49 168.048C313.602 168.048 315.106 166.896 315.106 165.2ZM311.362 168.848H309.25V173.12H319.282V171.44H311.362V168.848ZM318.754 163.136V158.64H316.642V169.664H318.754V164.88H320.706V163.136H318.754ZM334.897 164.048H328.833V162.528H334.897V164.048ZM336.977 159.2H334.897V160.88H328.833V159.2H326.737V165.728H336.977V159.2ZM338.561 167.12H325.217V168.8H330.785V173.392H332.897V168.8H338.561V167.12ZM342.112 162.048H345.488V160.336H340.032V170.064H341.056C342.944 170.064 344.512 170 346.304 169.664L346.144 167.952C344.736 168.208 343.488 168.288 342.112 168.32V162.048ZM350.256 158.624V164.304H348.928V158.912H346.96V172.688H348.928V166H350.256V173.376H352.256V158.624H350.256ZM364.335 160.592C366.207 160.592 367.359 161.056 367.359 161.968C367.359 162.88 366.207 163.344 364.335 163.344C362.495 163.344 361.327 162.88 361.327 161.968C361.327 161.056 362.495 160.592 364.335 160.592ZM364.335 165.024C367.519 165.024 369.631 163.84 369.631 161.968C369.631 160.112 367.519 158.912 364.335 158.912C361.167 158.912 359.039 160.112 359.039 161.968C359.039 163.84 361.167 165.024 364.335 165.024ZM361.375 168.704H359.231V173.12H369.567V171.44H361.375V168.704ZM357.679 165.792V167.472H363.391V170H365.551V167.472H371.023V165.792H357.679ZM374.27 163.04C374.27 161.888 375.054 161.216 376.142 161.216C377.23 161.216 378.03 161.888 378.03 163.04C378.03 164.176 377.23 164.864 376.142 164.864C375.054 164.864 374.27 164.176 374.27 163.04ZM382.286 162.24V163.84H379.934C379.998 163.568 380.03 163.312 380.03 163.04C380.03 162.752 379.998 162.496 379.95 162.24H382.286ZM382.286 165.52V167.28H384.398V158.64H382.286V160.56H379.038C378.334 159.856 377.326 159.424 376.142 159.424C373.966 159.424 372.27 160.944 372.27 163.04C372.27 165.12 373.966 166.64 376.142 166.64C377.294 166.64 378.302 166.224 379.006 165.52H382.286ZM379.406 171.76C377.47 171.76 376.446 171.344 376.446 170.48C376.446 169.616 377.47 169.2 379.406 169.2C381.342 169.2 382.382 169.616 382.382 170.48C382.382 171.344 381.342 171.76 379.406 171.76ZM379.406 167.568C376.302 167.568 374.366 168.64 374.366 170.48C374.366 172.304 376.302 173.376 379.406 173.376C382.526 173.376 384.462 172.304 384.462 170.48C384.462 168.64 382.526 167.568 379.406 167.568ZM397.069 158.832V173.216H398.381V158.832H397.069ZM390.813 159.936C388.685 159.936 387.165 161.888 387.165 164.944C387.165 168 388.685 169.952 390.813 169.952C392.941 169.952 394.461 168 394.461 164.944C394.461 161.888 392.941 159.936 390.813 159.936ZM390.813 161.12C392.205 161.12 393.197 162.624 393.197 164.944C393.197 167.28 392.205 168.784 390.813 168.784C389.405 168.784 388.413 167.28 388.413 164.944C388.413 162.624 389.405 161.12 390.813 161.12ZM405.452 160.368V161.456H410.716C410.412 164.848 408.444 167.6 404.78 169.44L405.5 170.464C410.14 168.144 412.012 164.448 412.012 160.368H405.452ZM418.028 164.656H415.724V158.832H414.412V173.184H415.724V165.744H418.028V164.656ZM430.587 162.832H422.155V159.136H420.843V163.888H430.587V162.832ZM425.563 172.112C423.307 172.112 421.979 171.52 421.979 170.528C421.979 169.504 423.307 168.928 425.563 168.928C427.819 168.928 429.147 169.504 429.147 170.528C429.147 171.52 427.803 172.112 425.563 172.112ZM425.563 167.904C422.507 167.904 420.651 168.848 420.651 170.528C420.651 172.192 422.507 173.136 425.563 173.136C428.619 173.136 430.475 172.192 430.475 170.528C430.475 168.848 428.619 167.904 425.563 167.904ZM419.099 165.552V166.624H432.075V165.552H419.099ZM441.994 160.304H438.41V158.688H437.098V160.304H433.53V161.36H441.994V160.304ZM435.578 164.544C435.578 163.616 436.442 163.024 437.754 163.024C439.066 163.024 439.946 163.616 439.946 164.544C439.946 165.488 439.066 166.064 437.754 166.064C436.442 166.064 435.578 165.488 435.578 164.544ZM441.194 164.544C441.194 163.024 439.802 162.048 437.754 162.048C435.706 162.048 434.33 163.024 434.33 164.544C434.33 166.08 435.706 167.056 437.754 167.056C439.802 167.056 441.194 166.08 441.194 164.544ZM443.322 171.936H436.89V170.352H443.322V171.936ZM443.322 169.328H436.89V167.808H435.594V172.992H444.618V167.808H443.322V169.328ZM446.746 162.48H444.618V158.832H443.306V167.168H444.618V163.584H446.746V162.48ZM450.088 160.224H448.776V169.472H449.96C452.248 169.472 454.504 169.312 457 168.8L456.856 167.68C454.472 168.16 452.248 168.352 450.088 168.352V160.224ZM458.328 158.832V173.168H459.64V158.832H458.328ZM464.199 161.296H469.559V160.208H462.887V169.632H464.023C466.727 169.632 468.615 169.536 470.807 169.12L470.663 168.032C468.583 168.4 466.743 168.512 464.199 168.512V161.296ZM475.687 164.496H473.319V158.832H472.007V173.216H473.319V165.584H475.687V164.496ZM476.955 171.242C476.955 170.992 477.028 170.784 477.174 170.617C477.325 170.451 477.549 170.367 477.846 170.367C478.143 170.367 478.366 170.451 478.518 170.617C478.674 170.784 478.752 170.992 478.752 171.242C478.752 171.482 478.674 171.682 478.518 171.844C478.366 172.005 478.143 172.086 477.846 172.086C477.549 172.086 477.325 172.005 477.174 171.844C477.028 171.682 476.955 171.482 476.955 171.242Z" fill="black" fill-opacity="0.85"/>
<path d="M441.922 404.488H449.25V407.128H441.922V404.488ZM446.242 411.272V408.184H450.53V400.856H449.25V403.416H441.922V400.856H440.626V408.184H444.914V411.272H439.09V412.344H452.098V411.272H446.242ZM455.041 404.376C455.041 402.968 456.097 401.976 457.505 401.976C458.913 401.976 459.969 402.968 459.969 404.376C459.969 405.784 458.913 406.776 457.505 406.776C456.097 406.776 455.041 405.784 455.041 404.376ZM461.249 404.376C461.249 402.296 459.649 400.84 457.505 400.84C455.361 400.84 453.761 402.296 453.761 404.376C453.761 406.456 455.361 407.912 457.505 407.912C459.649 407.912 461.249 406.456 461.249 404.376ZM457.009 409.32H455.697V413.864H465.265V412.792H457.009V409.32ZM464.625 404.2V399.832H463.313V410.392H464.625V405.288H466.737V404.2H464.625ZM478.383 408.328H479.711V399.848H478.383V402.888H475.263V403.96H478.383V408.328ZM476.303 406.632C474.207 405.896 472.815 404.12 472.815 402.072V400.648H471.503V402.12C471.503 404.312 470.079 406.232 467.871 407.016L468.559 408.088C470.287 407.432 471.583 406.136 472.191 404.44C472.815 405.928 474.031 407.064 475.599 407.656L476.303 406.632ZM474.975 413.128C472.815 413.128 471.503 412.504 471.503 411.464C471.503 410.408 472.815 409.784 474.975 409.784C477.135 409.784 478.447 410.408 478.447 411.464C478.447 412.504 477.135 413.128 474.975 413.128ZM474.975 408.76C472.031 408.76 470.191 409.736 470.191 411.464C470.191 413.176 472.031 414.168 474.975 414.168C477.919 414.168 479.759 413.176 479.759 411.464C479.759 409.736 477.919 408.76 474.975 408.76Z" fill="black"/>
<circle cx="460" cy="313" r="72" fill="#E0ECEC"/>
<path d="M460 273L428 287.545V309.364C428 329.545 441.653 348.418 460 353C478.347 348.418 492 329.545 492 309.364V287.545L460 273ZM460 312.964H484.889C483.004 327.945 473.227 341.291 460 345.473V313H435.111V292.273L460 280.964V312.964Z" fill="black"/>
<circle cx="266" cy="313" r="72" fill="#E0ECEC"/>
<path d="M253.618 401.144H250.162V399.736H248.85V401.144H245.378V402.136H253.618V401.144ZM247.394 404.792C247.394 404.04 248.21 403.576 249.506 403.576C250.77 403.576 251.602 404.04 251.602 404.792C251.602 405.544 250.77 406.024 249.506 406.024C248.21 406.024 247.394 405.544 247.394 404.792ZM254.05 407.544C252.802 407.736 251.474 407.832 250.162 407.896V406.904C251.81 406.728 252.85 405.96 252.85 404.792C252.85 403.48 251.506 402.664 249.506 402.664C247.474 402.664 246.146 403.48 246.146 404.792C246.146 405.976 247.186 406.744 248.85 406.904V407.944C247.474 407.992 246.162 407.992 245.026 407.992L245.17 409.048C247.682 409.032 251.074 409.016 254.146 408.488L254.05 407.544ZM246.77 411.224H254.898V414.184H256.21V410.184H246.77V411.224ZM258.306 404.184H256.21V399.848H254.898V409.464H256.21V405.272H258.306V404.184ZM267.809 406.776C265.697 406.072 264.337 404.392 264.337 402.52V401.96H267.505V400.904H259.809V401.96H263.025V402.52C263.025 404.584 261.585 406.44 259.425 407.192L260.097 408.232C261.809 407.624 263.105 406.344 263.713 404.712C264.321 406.136 265.553 407.272 267.185 407.8L267.809 406.776ZM266.065 413.128C263.921 413.128 262.641 412.536 262.641 411.512C262.641 410.504 263.921 409.912 266.065 409.912C268.177 409.912 269.473 410.504 269.473 411.512C269.473 412.536 268.177 413.128 266.065 413.128ZM266.065 408.872C263.121 408.872 261.329 409.848 261.329 411.512C261.329 413.192 263.121 414.168 266.065 414.168C268.977 414.168 270.785 413.192 270.785 411.512C270.785 409.848 268.977 408.872 266.065 408.872ZM270.625 403.464V399.848H269.313V408.504H270.625V404.568H272.753V403.464H270.625ZM284.383 408.328H285.711V399.848H284.383V402.888H281.263V403.96H284.383V408.328ZM282.303 406.632C280.207 405.896 278.815 404.12 278.815 402.072V400.648H277.503V402.12C277.503 404.312 276.079 406.232 273.871 407.016L274.559 408.088C276.287 407.432 277.583 406.136 278.191 404.44C278.815 405.928 280.031 407.064 281.599 407.656L282.303 406.632ZM280.975 413.128C278.815 413.128 277.503 412.504 277.503 411.464C277.503 410.408 278.815 409.784 280.975 409.784C283.135 409.784 284.447 410.408 284.447 411.464C284.447 412.504 283.135 413.128 280.975 413.128ZM280.975 408.76C278.031 408.76 276.191 409.736 276.191 411.464C276.191 413.176 278.031 414.168 280.975 414.168C283.919 414.168 285.759 413.176 285.759 411.464C285.759 409.736 283.919 408.76 280.975 408.76Z" fill="black"/>
<path d="M251.563 322.743C252.192 322.136 253.034 321.8 253.908 321.808C254.782 321.815 255.618 322.166 256.236 322.784C256.854 323.402 257.205 324.238 257.212 325.112C257.22 325.986 256.884 326.828 256.277 327.457L247.383 336.347H252.667C253.484 336.347 254.272 336.647 254.882 337.19C255.492 337.734 255.882 338.482 255.977 339.293L256 339.68C256 340.564 255.649 341.412 255.024 342.037C254.399 342.662 253.551 343.013 252.667 343.013H239.333C238.449 343.013 237.601 342.662 236.976 342.037C236.351 341.412 236 340.564 236 339.68V326.347C236 325.463 236.351 324.615 236.976 323.99C237.601 323.365 238.449 323.013 239.333 323.013C240.217 323.013 241.065 323.365 241.69 323.99C242.315 324.615 242.667 325.463 242.667 326.347V331.637L251.563 322.743ZM279.35 343.013C278.466 343.013 277.618 342.662 276.993 342.037C276.368 341.412 276.017 340.564 276.017 339.68C276.017 338.796 276.368 337.948 276.993 337.323C277.618 336.698 278.466 336.347 279.35 336.347H284.627L275.743 327.457C275.169 326.883 274.825 326.119 274.774 325.309C274.723 324.499 274.969 323.698 275.467 323.057L275.743 322.743C276.368 322.118 277.216 321.767 278.1 321.767C278.984 321.767 279.832 322.118 280.457 322.743L289.35 331.643V326.347C289.35 325.53 289.65 324.742 290.192 324.132C290.735 323.522 291.482 323.132 292.293 323.037L292.683 323.013C293.567 323.013 294.415 323.365 295.04 323.99C295.665 324.615 296.017 325.463 296.017 326.347V339.68C296.017 340.564 295.665 341.412 295.04 342.037C294.415 342.662 293.567 343.013 292.683 343.013H279.35ZM252.667 283C253.551 283 254.399 283.351 255.024 283.976C255.649 284.601 256 285.449 256 286.333C256 287.217 255.649 288.065 255.024 288.69C254.399 289.315 253.551 289.667 252.667 289.667H247.39L256.273 298.56C256.847 299.134 257.192 299.898 257.243 300.708C257.294 301.518 257.048 302.319 256.55 302.96L256.273 303.273C255.648 303.898 254.801 304.249 253.917 304.249C253.033 304.249 252.185 303.898 251.56 303.273L242.667 294.373V299.667C242.667 300.483 242.367 301.271 241.824 301.881C241.282 302.491 240.534 302.881 239.723 302.977L239.333 303C238.449 303 237.601 302.649 236.976 302.024C236.351 301.399 236 300.551 236 299.667V286.333C236 285.449 236.351 284.601 236.976 283.976C237.601 283.351 238.449 283 239.333 283H252.667ZM292.683 283C293.567 283 294.415 283.351 295.04 283.976C295.665 284.601 296.017 285.449 296.017 286.333V299.667C296.017 300.551 295.665 301.399 295.04 302.024C294.415 302.649 293.567 303 292.683 303C291.799 303 290.951 302.649 290.326 302.024C289.701 301.399 289.35 300.551 289.35 299.667V294.373L280.457 303.273C279.883 303.847 279.119 304.192 278.309 304.243C277.499 304.294 276.698 304.048 276.057 303.55L275.743 303.273C275.118 302.648 274.767 301.801 274.767 300.917C274.767 300.033 275.118 299.185 275.743 298.56L284.63 289.667H279.35C278.534 289.667 277.746 289.367 277.135 288.824C276.525 288.282 276.136 287.534 276.04 286.723L276.017 286.333C276.017 285.449 276.368 284.601 276.993 283.976C277.618 283.351 278.466 283 279.35 283H292.683Z" fill="black"/>
<circle cx="72" cy="313" r="72" fill="#E0ECEC"/>
<path d="M52.5299 410.504H61.1699V414.296H62.4979V409.432H52.5299V410.504ZM58.2419 406.984V405.272H62.5939V404.216H54.0339V401.464H62.4659V400.408H52.7219V405.272H56.9299V406.984H51.0899V408.04H64.0819V406.984H58.2419ZM74.2086 405.896C71.9366 406.264 70.0646 406.344 67.5206 406.344V404.408H72.7206V400.536H66.1926V401.592H71.4246V403.4H66.2406V407.416H67.3926C70.0486 407.416 72.0006 407.336 74.3526 406.952L74.2086 405.896ZM75.9686 412.92H69.2646V411.16H75.9686V412.92ZM75.9686 410.136H69.2646V408.44H67.9686V413.992H77.2646V408.44H75.9686V410.136ZM75.9526 399.848V407.72H77.2646V399.848H75.9526ZM90.3834 408.328H91.7114V399.848H90.3834V402.888H87.2634V403.96H90.3834V408.328ZM88.3034 406.632C86.2074 405.896 84.8154 404.12 84.8154 402.072V400.648H83.5034V402.12C83.5034 404.312 82.0794 406.232 79.8714 407.016L80.5594 408.088C82.2874 407.432 83.5834 406.136 84.1914 404.44C84.8154 405.928 86.0314 407.064 87.5994 407.656L88.3034 406.632ZM86.9754 413.128C84.8154 413.128 83.5034 412.504 83.5034 411.464C83.5034 410.408 84.8154 409.784 86.9754 409.784C89.1354 409.784 90.4474 410.408 90.4474 411.464C90.4474 412.504 89.1354 413.128 86.9754 413.128ZM86.9754 408.76C84.0314 408.76 82.1914 409.736 82.1914 411.464C82.1914 413.176 84.0314 414.168 86.9754 414.168C89.9194 414.168 91.7594 413.176 91.7594 411.464C91.7594 409.736 89.9194 408.76 86.9754 408.76Z" fill="black"/>
<path d="M107 288C106.992 285.407 105.976 282.919 104.165 281.062C102.355 279.206 99.8925 278.127 97.3004 278.054C94.7082 277.981 92.1895 278.92 90.2777 280.672C88.3658 282.424 87.211 284.851 87.0577 287.44L55.9652 293.657C55.2382 292.147 54.1421 290.843 52.7782 289.868C51.4142 288.893 49.8264 288.277 48.1616 288.078C46.4967 287.879 44.8085 288.102 43.253 288.728C41.6974 289.354 40.3248 290.362 39.2618 291.659C38.1989 292.956 37.48 294.499 37.1716 296.148C36.8632 297.796 36.9753 299.495 37.4974 301.088C38.0195 302.682 38.9349 304.118 40.1588 305.264C41.3828 306.41 42.8759 307.229 44.5002 307.645V328.355C42.7952 328.793 41.2363 329.674 39.9818 330.909C38.7272 332.143 37.8218 333.688 37.3572 335.386C36.8927 337.084 36.8856 338.875 37.3367 340.576C37.7879 342.278 38.6811 343.83 39.9259 345.074C41.1706 346.319 42.7225 347.212 44.424 347.663C46.1255 348.115 47.9161 348.108 49.6141 347.643C51.312 347.178 52.8568 346.273 54.0916 345.018C55.3265 343.764 56.2075 342.205 56.6452 340.5H77.3552C77.7708 342.125 78.5895 343.62 79.7356 344.845C80.8817 346.07 82.3182 346.986 83.9122 347.509C85.5063 348.032 87.2065 348.144 88.8555 347.836C90.5045 347.527 92.0492 346.808 93.3466 345.745C94.6441 344.681 95.6525 343.308 96.2785 341.752C96.9045 340.195 97.128 338.506 96.9282 336.84C96.7284 335.175 96.1119 333.586 95.1356 332.222C94.1593 330.858 92.8548 329.762 91.3427 329.035L97.5602 297.942C100.105 297.803 102.501 296.696 104.256 294.847C106.011 292.999 106.993 290.549 107 288ZM97.0002 283C97.9891 283 98.9558 283.293 99.778 283.843C100.6 284.392 101.241 285.173 101.62 286.087C101.998 287 102.097 288.006 101.904 288.975C101.711 289.945 101.235 290.836 100.536 291.536C99.8365 292.235 98.9455 292.711 97.9756 292.904C97.0057 293.097 96.0004 292.998 95.0868 292.619C94.1731 292.241 93.3922 291.6 92.8428 290.778C92.2934 289.956 92.0002 288.989 92.0002 288C92.0015 286.674 92.5287 285.403 93.4661 284.466C94.4035 283.529 95.6745 283.001 97.0002 283ZM42.0002 298C42.0002 297.011 42.2934 296.044 42.8428 295.222C43.3922 294.4 44.1731 293.759 45.0868 293.381C46.0004 293.002 47.0057 292.903 47.9756 293.096C48.9455 293.289 49.8365 293.765 50.5357 294.464C51.235 295.164 51.7112 296.055 51.9041 297.025C52.097 297.994 51.998 299 51.6196 299.913C51.2411 300.827 50.6003 301.608 49.778 302.157C48.9558 302.707 47.9891 303 47.0002 303C45.6745 302.999 44.4035 302.471 43.4661 301.534C42.5287 300.597 42.0015 299.326 42.0002 298ZM47.0002 343C46.0113 343 45.0446 342.707 44.2223 342.157C43.4001 341.608 42.7592 340.827 42.3808 339.913C42.0024 339 41.9033 337.994 42.0963 337.025C42.2892 336.055 42.7654 335.164 43.4647 334.464C44.1639 333.765 45.0548 333.289 46.0247 333.096C46.9946 332.903 48 333.002 48.9136 333.381C49.8272 333.759 50.6081 334.4 51.1575 335.222C51.7069 336.044 52.0002 337.011 52.0002 338C51.9989 339.326 51.4717 340.597 50.5343 341.534C49.5969 342.471 48.3259 342.999 47.0002 343ZM77.3552 335.5H56.6452C56.1974 333.781 55.2992 332.213 54.0432 330.957C52.7873 329.701 51.219 328.803 49.5002 328.355V307.645C51.5428 307.114 53.3641 305.948 54.7016 304.315C56.0391 302.682 56.8238 300.667 56.9427 298.56L88.0352 292.342C89.015 294.358 90.6427 295.987 92.6577 296.967L86.4402 328.058C84.3329 328.176 82.3178 328.961 80.6852 330.299C79.0525 331.636 77.8865 333.457 77.3552 335.5ZM87.0002 343C86.0113 343 85.0446 342.707 84.2223 342.157C83.4001 341.608 82.7592 340.827 82.3808 339.913C82.0023 339 81.9033 337.994 82.0963 337.025C82.2892 336.055 82.7654 335.164 83.4646 334.464C84.1639 333.765 85.0548 333.289 86.0247 333.096C86.9946 332.903 88 333.002 88.9136 333.381C89.8272 333.759 90.6081 334.4 91.1575 335.222C91.7069 336.044 92.0002 337.011 92.0002 338C91.9989 339.326 91.4716 340.597 90.5343 341.534C89.5969 342.471 88.3259 342.999 87.0002 343Z" fill="black"/>
</svg>
