<svg width="300" height="70" viewBox="0 0 300 70" fill="none" xmlns="http://www.w3.org/2000/svg">
<path d="M19.1194 28.0299C19.8654 25.0597 22.3925 19.5635 25.7512 16.8765C29.1225 14.1795 33.3235 13 38 13C42.3941 13 45.796 14.036 48.5719 15.6346C51.1949 17.1451 53.1048 19.0845 54.5322 20.5341L54.6304 20.6338C56.6091 22.6423 57.469 23.3692 58.4701 23.6194C59.6966 23.926 60.6707 23.825 61.5493 23.4484C62.4844 23.0477 63.5924 22.2101 64.8 20.6C65.9423 19.0769 67.9999 18.57 69.7191 19.3882C71.4382 20.2065 72.3423 22.1231 71.8805 23.9701C70.7297 28.5736 68.6075 32.4365 65.2488 35.1235C63.0126 36.9124 60.4113 38.0337 57.5484 38.586C57.5484 38.586 57.5 39.5 56.8805 41.9701C55.5 47 53.6074 50.4365 50.2488 53.1235C46.8775 55.8205 42.6764 57 38 57C33.6058 57 30.204 55.964 27.428 54.3654C24.8051 52.8549 22.8952 50.9155 21.4678 49.466L21.4677 49.466L21.3695 49.3662C19.3908 47.3577 18.5309 46.6308 17.5298 46.3806C16.3034 46.074 15.3293 46.175 14.4506 46.5516C13.5156 46.9523 12.4075 47.7899 11.2 49.4C10.0576 50.9231 8 51.43 6.28088 50.6117C4.56176 49.7935 3.65763 47.8769 4.1194 46.0299C5.27026 41.4264 7.39249 37.5635 10.7512 34.8765C12.967 33.1039 15.5413 31.9868 18.3734 31.4293C18.3734 31.4293 18.3734 31 19.1194 28.0299Z" fill="white"/>
<path fill-rule="evenodd" clip-rule="evenodd" d="M38 17C30 17 25 21 23 29C26 25 29.5 23.5 33.5 24.5C35.7822 25.0706 37.4134 26.7262 39.219 28.559C42.1603 31.5446 45.5646 35 53 35C61 35 66 31 68 23C65 27 61.5 28.5 57.5 27.5C55.2178 26.9294 53.5866 25.2738 51.781 23.441C48.8397 20.4554 45.4354 17 38 17ZM23 35C15 35 10 39 8 47C11 43 14.5 41.5 18.5 42.5C20.7822 43.0706 22.4134 44.7262 24.219 46.559C27.1603 49.5446 30.5646 53 38 53C46 53 51 49 53 41C50 45 46.5 46.5 42.5 45.5C40.2178 44.9294 38.5866 43.2738 36.781 41.441C33.8397 38.4554 30.4354 35 23 35Z" fill="#06B6D4"/>
<path d="M95.8138 24.7164C97.4824 24.7164 98.9123 25.738 99.5122 27.1898C101.908 25.299 104.906 24.1775 108.186 24.1775C110.126 24.1775 111.917 24.5363 113.516 25.2086C114.087 24.8948 114.743 24.7164 115.44 24.7164H119.917C120.235 24.7164 120.545 24.7535 120.841 24.8235C120.628 24.1648 120.514 23.4662 120.514 22.7469C120.514 18.9625 123.59 15.8865 127.374 15.8865C128.859 15.8865 130.234 16.3597 131.357 17.1631C132.052 15.9778 133.338 15.1818 134.811 15.1818H139.288C141.497 15.1818 143.288 16.9727 143.288 19.1818V24.7164H147.347C149.139 24.7164 150.713 25.9084 151.198 27.6337L151.52 28.7805L151.894 27.5517C152.407 25.8675 153.96 24.7164 155.721 24.7164H159.991C161.755 24.7164 163.311 25.8725 163.82 27.5619L164.188 28.7809L164.517 27.6234C165.005 25.9032 166.576 24.7164 168.364 24.7164H172.059C171.868 24.0892 171.765 23.4273 171.765 22.7469C171.765 18.9625 174.841 15.8865 178.626 15.8865C182.41 15.8865 185.486 18.9625 185.486 22.7469C185.486 23.4644 185.372 24.1612 185.161 24.8185C185.451 24.7517 185.753 24.7164 186.063 24.7164H190.54C191.116 24.7164 191.664 24.8383 192.16 25.0579C193.658 24.4561 195.292 24.1775 196.965 24.1775C200.214 24.1775 203.298 25.2993 205.565 27.6495C206.296 28.4074 206.906 29.2551 207.396 30.1743C209.99 26.5341 214.153 24.1775 218.907 24.1775C220.046 24.1775 221.133 24.3011 222.161 24.5394V20.4255C222.161 18.2163 223.952 16.4255 226.161 16.4255H230.638C232.847 16.4255 234.638 18.2163 234.638 20.4255V28.8506C237.335 25.9561 241.216 24.1775 245.64 24.1775C249.595 24.1775 253.302 25.6832 255.951 28.3033C256.406 27.74 256.923 27.2264 257.493 26.7686C259.695 25 262.524 24.1775 265.376 24.1775C269.136 24.1775 272.636 25.6129 275.026 28.3509C275.489 27.7689 276.019 27.2392 276.605 26.7686C278.808 25 281.637 24.1775 284.489 24.1775C289.176 24.1775 293.461 26.409 295.692 30.6147C296.71 32.5344 296.009 34.9158 294.113 35.9781L293.412 36.371C293.448 36.4018 293.484 36.433 293.52 36.4645C295.431 38.1532 296.614 40.5433 296.614 43.5986C296.614 46.9872 295.071 49.7598 292.625 51.5642C290.302 53.278 287.377 53.9826 284.53 53.9826C280.711 53.9826 277.3 52.724 274.888 50.3456C274.471 50.7899 274.01 51.1971 273.513 51.5642C271.189 53.278 268.265 53.9826 265.418 53.9826C261.514 53.9826 258.037 52.6679 255.618 50.1866C252.982 52.5965 249.441 53.9826 245.64 53.9826C241.212 53.9826 237.334 52.1915 234.638 49.2931V49.4436C234.638 51.6528 232.847 53.4436 230.638 53.4436H226.161C225.462 53.4436 224.805 53.2644 224.234 52.9495C222.634 53.6246 220.843 53.9826 218.907 53.9826C214.989 53.9826 211.477 52.3737 208.911 49.7725C208.744 51.8278 207.023 53.4436 204.924 53.4436H200.447H200.032C197.728 53.4436 195.783 51.7297 195.494 49.4436C195.212 51.7279 193.271 53.4436 190.97 53.4436H190.54H186.063C185.07 53.4436 184.163 53.0824 183.463 52.4842C182.764 53.0824 181.857 53.4436 180.864 53.4436H176.387C174.178 53.4436 172.387 51.6528 172.387 49.4436V44.3075L170.398 50.642C169.875 52.3092 168.329 53.4436 166.582 53.4436H162.188C160.433 53.4436 158.883 52.2999 158.366 50.6232L157.858 48.9789L157.343 50.6335C156.822 52.305 155.275 53.4436 153.524 53.4436H149.13C147.382 53.4436 145.837 52.3092 145.313 50.642L143.288 44.1931V49.4436C143.288 51.6528 141.497 53.4436 139.288 53.4436H134.811C133.819 53.4436 132.911 53.0824 132.212 52.4842C131.513 53.0824 130.605 53.4436 129.613 53.4436H125.136C124.139 53.4436 123.227 53.0789 122.527 52.4756C121.826 53.0789 120.914 53.4436 119.917 53.4436H115.44C114.741 53.4436 114.084 53.2644 113.513 52.9495C111.913 53.6246 110.122 53.9826 108.186 53.9826C104.906 53.9826 101.91 52.8547 99.5156 50.9608C98.9797 52.267 97.7706 53.2368 96.2923 53.4149C92.6713 53.8512 88.9928 53.7595 86.1802 51.853C83.0381 49.7231 82.1964 46.2508 82.1964 42.9767V37.0234C80.0737 36.9261 78.3826 35.1744 78.3826 33.0276V28.7164C78.3826 26.5696 80.0737 24.8179 82.1964 24.7206V23.1484C82.1964 21.3769 83.3616 19.8164 85.06 19.3132L89.5371 17.9866C90.7472 17.6281 92.0554 17.8617 93.0667 18.6167C94.0779 19.3718 94.6735 20.5598 94.6735 21.8218V24.7164H95.8138Z" fill="white"/>
<path d="M95.814 33.0276V28.7164H90.6736V21.8218L86.1965 23.1484V28.7164H82.3827V33.0276H86.1965V42.9767C86.1965 48.3658 88.9325 50.2727 95.814 49.4436V45.4226C92.4147 45.5884 90.6736 45.6298 90.6736 42.9767V33.0276H95.814Z" fill="black"/>
<path d="M115.44 28.7164V31.6596C113.865 29.504 111.419 28.1775 108.186 28.1775C102.548 28.1775 97.8637 32.9033 97.8637 39.08C97.8637 45.2153 102.548 49.9826 108.186 49.9826C111.419 49.9826 113.865 48.656 115.44 46.4589V49.4436H119.918V28.7164H115.44ZM108.891 45.7127C105.16 45.7127 102.341 42.9353 102.341 39.08C102.341 35.2247 105.16 32.4473 108.891 32.4473C112.622 32.4473 115.44 35.2247 115.44 39.08C115.44 42.9353 112.622 45.7127 108.891 45.7127Z" fill="black"/>
<path d="M127.374 25.6073C128.95 25.6073 130.235 24.2807 130.235 22.7469C130.235 21.1716 128.95 19.8865 127.374 19.8865C125.799 19.8865 124.514 21.1716 124.514 22.7469C124.514 24.2807 125.799 25.6073 127.374 25.6073ZM125.136 49.4436H129.613V28.7164H125.136V49.4436Z" fill="black"/>
<path d="M134.811 49.4436H139.288V19.1818H134.811V49.4436Z" fill="black"/>
<path d="M168.365 28.7164L164.302 43.0182L159.991 28.7164H155.721L151.368 43.0182L147.347 28.7164H142.621L149.13 49.4436H153.524L157.877 35.4735L162.188 49.4436H166.582L173.09 28.7164H168.365Z" fill="black"/>
<path d="M178.626 25.6073C180.201 25.6073 181.486 24.2807 181.486 22.7469C181.486 21.1716 180.201 19.8865 178.626 19.8865C177.051 19.8865 175.766 21.1716 175.766 22.7469C175.766 24.2807 177.051 25.6073 178.626 25.6073ZM176.387 49.4436H180.864V28.7164H176.387V49.4436Z" fill="black"/>
<path d="M196.965 28.1775C194.146 28.1775 191.908 29.2138 190.54 31.3695V28.7164H186.063V49.4436H190.54V38.3338C190.54 34.1055 192.861 32.3644 195.805 32.3644C198.624 32.3644 200.448 34.0226 200.448 37.1731V49.4436H204.925V36.7171C204.925 31.328 201.608 28.1775 196.965 28.1775Z" fill="black"/>
<path d="M226.161 20.4255V31.6596C224.586 29.504 222.14 28.1775 218.907 28.1775C213.269 28.1775 208.585 32.9033 208.585 39.08C208.585 45.2153 213.269 49.9826 218.907 49.9826C222.14 49.9826 224.586 48.656 226.161 46.4589V49.4436H230.638V20.4255H226.161ZM219.611 45.7127C215.881 45.7127 213.062 42.9353 213.062 39.08C213.062 35.2247 215.881 32.4473 219.611 32.4473C223.342 32.4473 226.161 35.2247 226.161 39.08C226.161 42.9353 223.342 45.7127 219.611 45.7127Z" fill="black"/>
<path d="M245.64 49.9826C249.703 49.9826 253.226 47.8684 254.967 44.5935L251.112 42.3964C250.117 44.3033 248.086 45.5884 245.599 45.5884C241.951 45.5884 239.173 42.8109 239.173 39.08C239.173 35.3491 241.951 32.5716 245.599 32.5716C248.086 32.5716 250.117 33.8153 251.029 35.7636L254.884 33.5251C253.226 30.2916 249.703 28.1775 245.64 28.1775C239.38 28.1775 234.696 32.9033 234.696 39.08C234.696 45.2153 239.38 49.9826 245.64 49.9826Z" fill="black"/>
<path d="M262.35 34.4371C262.35 32.9447 263.76 32.24 265.376 32.24C267.076 32.24 268.527 32.9862 269.273 34.6029L273.045 32.4887C271.594 29.7527 268.776 28.1775 265.376 28.1775C261.148 28.1775 257.79 30.6233 257.79 34.52C257.79 41.9404 268.941 39.8676 268.941 43.5571C268.941 45.2153 267.408 45.8786 265.418 45.8786C263.138 45.8786 261.48 44.7593 260.816 42.8938L256.961 45.1324C258.288 48.1171 261.272 49.9826 265.418 49.9826C269.895 49.9826 273.501 47.744 273.501 43.5986C273.501 35.9295 262.35 38.2095 262.35 34.4371Z" fill="black"/>
<path d="M281.463 34.4371C281.463 32.9447 282.872 32.24 284.489 32.24C286.188 32.24 287.639 32.9862 288.385 34.6029L292.158 32.4887C290.707 29.7527 287.888 28.1775 284.489 28.1775C280.26 28.1775 276.903 30.6233 276.903 34.52C276.903 41.9404 288.054 39.8676 288.054 43.5571C288.054 45.2153 286.52 45.8786 284.53 45.8786C282.25 45.8786 280.592 44.7593 279.929 42.8938L276.074 45.1324C277.4 48.1171 280.385 49.9826 284.53 49.9826C289.007 49.9826 292.614 47.744 292.614 43.5986C292.614 35.9295 281.463 38.2095 281.463 34.4371Z" fill="black"/>
</svg>
