<svg width="36" height="36" viewBox="0 0 36 36" fill="none" xmlns="http://www.w3.org/2000/svg">
<path fill-rule="evenodd" clip-rule="evenodd" d="M6.5 28.5V7.5C6.5 6.94772 6.94772 6.5 7.5 6.5H16.5V4.5H7.5C5.84315 4.5 4.5 5.84315 4.5 7.5V28.5C4.5 30.1569 5.84315 31.5 7.5 31.5H28.5C30.1569 31.5 31.5 30.1569 31.5 28.5V19.5H29.5V28.5C29.5 29.0523 29.0523 29.5 28.5 29.5H7.5C6.94772 29.5 6.5 29.0523 6.5 28.5Z" fill="black"/>
<path d="M16.007 24.5788L10.2748 25.7252L11.4212 19.993L29.25 2.16421L33.8358 6.75L16.007 24.5788Z" stroke="black" stroke-width="2"/>
</svg>
