<svg width="30" height="20" viewBox="0 0 30 20" fill="none" xmlns="http://www.w3.org/2000/svg">
<rect x="7" y="17" width="16" height="1" fill="white"/>
<rect x="7" y="3" width="1" height="14" fill="white"/>
<rect x="22" y="3" width="1" height="14" fill="white"/>
<rect x="7" y="2" width="16" height="1" fill="white"/>
<path fill-rule="evenodd" clip-rule="evenodd" d="M9.48225 2.25C9.15821 2.25 8.83863 2.32544 8.5488 2.47036C8.05368 2.71792 7.67717 3.15203 7.50212 3.6772L7.48283 3.73505C7.29543 4.29726 7.33904 4.91088 7.60407 5.44094L7.70642 5.64564L8.9999 8.75C9.33323 9.55 9.33323 10.45 8.9999 11.25L7.70641 14.3544L7.60407 14.5591C7.33904 15.0891 7.29543 15.7027 7.48283 16.2649L7.50212 16.3228C7.67717 16.848 8.05368 17.2821 8.5488 17.5296C8.83863 17.6746 9.15821 17.75 9.48225 17.75H9.55546C9.92763 17.75 10.2947 17.6633 10.6276 17.4969L21.3369 12.1422C21.9051 11.8581 22.3371 11.36 22.538 10.7574C22.7019 10.2658 22.7019 9.73424 22.538 9.24261C22.3371 8.63999 21.9051 8.14185 21.3369 7.85778L10.6276 2.5031C10.2947 2.33665 9.92763 2.25 9.55545 2.25H9.48225ZM9.21962 3.812C9.30117 3.77123 9.39108 3.75 9.48225 3.75H9.55545C9.69477 3.75 9.83216 3.78244 9.95677 3.84474L20.6661 9.19942C20.8785 9.30558 21.0399 9.49174 21.115 9.71695C21.1762 9.90068 21.1762 10.0993 21.115 10.283C21.0399 10.5083 20.8785 10.6944 20.6661 10.8006L9.95677 16.1553C9.83216 16.2176 9.69477 16.25 9.55546 16.25H9.48225C9.39108 16.25 9.30117 16.2288 9.21962 16.188C9.08032 16.1184 8.97439 15.9962 8.92514 15.8485L8.90586 15.7906C8.84426 15.6058 8.85859 15.4041 8.94571 15.2299L9.05961 15.0021L9.07116 14.979L9.0811 14.9551L10.3845 11.8269C10.5772 11.3644 10.6937 10.879 10.734 10.3889H15.8053C16.2195 10.3889 16.5553 10.0531 16.5553 9.6389C16.5553 9.22468 16.2195 8.8889 15.8053 8.8889H10.6942C10.6688 8.8889 10.6438 8.89015 10.619 8.89261C10.5605 8.64846 10.4823 8.40782 10.3845 8.17308L9.0811 5.04487L9.07116 5.02103L9.05961 4.99792L8.94571 4.77012C8.85859 4.59589 8.84426 4.39419 8.90586 4.20939L8.92514 4.15154C8.97439 4.00378 9.08032 3.88165 9.21962 3.812Z" fill="#6A7B83"/>
<rect x="0.25" y="0.25" width="29.5" height="19.5" stroke="black" stroke-opacity="0.2" stroke-width="0.5"/>
</svg>
