<svg width="15" height="15" viewBox="0 0 15 15" fill="none" xmlns="http://www.w3.org/2000/svg">
<path d="M7.5 14L7.27059 13.7811C2.33824 9.18519 1 7.56566 1 4.93939C1 2.75084 2.52941 1 4.44118 1C6.00882 1 6.88824 2.00673 7.5 2.79461C8.11176 2.00673 8.99118 1 10.5588 1C12.4706 1 14 2.75084 14 4.93939C14 7.56566 12.6618 9.18519 7.72941 13.7811L7.5 14ZM4.44118 1.87542C2.95 1.87542 1.76471 3.23232 1.76471 4.93939C1.76471 7.17172 2.98824 8.65993 7.5 12.862C12.0118 8.65993 13.2353 7.17172 13.2353 4.93939C13.2353 3.23232 12.05 1.87542 10.5588 1.87542C9.22059 1.87542 8.49412 2.79461 7.92059 3.53872L7.5 4.10774L7.07941 3.53872C6.50588 2.79461 5.77941 1.87542 4.44118 1.87542Z" fill="#F44336"/>
</svg>
