<svg width="20" height="20" viewBox="0 0 20 20" fill="none" xmlns="http://www.w3.org/2000/svg">
<path d="M15.0965 18.5543C14.851 18.554 14.6111 18.4805 14.4076 18.3431L10.2632 15.5654C10.2428 15.5513 10.2186 15.5437 10.1937 15.5437C10.1689 15.5437 10.1447 15.5513 10.1243 15.5654L5.97986 18.3431C5.77174 18.4821 5.52628 18.5545 5.27607 18.5506C5.02585 18.5468 4.78272 18.4669 4.57897 18.3216C4.37522 18.1764 4.22048 17.9725 4.1353 17.7372C4.05012 17.5019 4.03854 17.2463 4.10208 17.0042L5.46319 12.2043C5.46963 12.1801 5.46885 12.1546 5.46095 12.1309C5.45305 12.1072 5.43838 12.0864 5.41875 12.0709L1.49653 8.98758C1.29005 8.83377 1.13689 8.61918 1.05852 8.37392C0.980149 8.12866 0.980504 7.86503 1.05953 7.61998C1.13856 7.37493 1.2923 7.16076 1.49919 7.0075C1.70608 6.85424 1.95575 6.76957 2.21319 6.76536L7.21319 6.57647C7.23778 6.57478 7.26135 6.56601 7.28106 6.55122C7.30077 6.53644 7.31579 6.51626 7.3243 6.49314L9.04653 1.80981C9.13334 1.57238 9.29101 1.36737 9.49819 1.22253C9.70537 1.07768 9.95206 1 10.2049 1C10.4577 1 10.7043 1.07768 10.9115 1.22253C11.1187 1.36737 11.2764 1.57238 11.3632 1.80981L13.0854 6.49314C13.0939 6.51626 13.1089 6.53644 13.1287 6.55122C13.1484 6.56601 13.1719 6.57478 13.1965 6.57647L18.1965 6.76536C18.454 6.76957 18.7036 6.85424 18.9105 7.0075C19.1174 7.16076 19.2712 7.37493 19.3502 7.61998C19.4292 7.86503 19.4296 8.12866 19.3512 8.37392C19.2728 8.61918 19.1197 8.83377 18.9132 8.98758L14.991 12.0709C14.9707 12.0859 14.9556 12.1067 14.9477 12.1306C14.9397 12.1544 14.9393 12.1802 14.9465 12.2043L16.3076 17.0042C16.3554 17.1884 16.3602 17.381 16.3215 17.5672C16.2828 17.7535 16.2018 17.9283 16.0847 18.0782C15.9676 18.2281 15.8175 18.349 15.6462 18.4315C15.4748 18.5141 15.2867 18.5561 15.0965 18.5543ZM10.1965 14.432C10.4425 14.4396 10.6806 14.5208 10.8799 14.6654L15.0243 17.4431C15.0453 17.4591 15.0709 17.4678 15.0973 17.4681C15.1237 17.4683 15.1494 17.4599 15.1707 17.4443C15.1919 17.4287 15.2075 17.4066 15.2152 17.3813C15.2229 17.3561 15.2222 17.3291 15.2132 17.3043L13.8521 12.5043C13.7851 12.2688 13.79 12.0187 13.8663 11.786C13.9425 11.5534 14.0865 11.3489 14.2799 11.1987L18.2021 8.11536C18.2235 8.10033 18.2395 8.07884 18.2478 8.05404C18.256 8.02924 18.2562 8.00243 18.2481 7.97757C18.24 7.9527 18.2241 7.93108 18.2029 7.91589C18.1816 7.90069 18.156 7.89272 18.1299 7.89314L13.1299 7.70425C12.885 7.69471 12.6486 7.61246 12.4507 7.468C12.2528 7.32354 12.1024 7.12341 12.0187 6.89314L10.2965 2.20981C10.2888 2.18494 10.2733 2.1632 10.2523 2.14777C10.2313 2.13234 10.2059 2.12401 10.1799 2.12401C10.1538 2.12401 10.1284 2.13234 10.1075 2.14777C10.0865 2.1632 10.071 2.18494 10.0632 2.20981L8.35764 6.88758C8.27395 7.11786 8.12357 7.31798 7.92567 7.46244C7.72778 7.60691 7.49135 7.68915 7.24653 7.69869L2.24653 7.88758C2.22038 7.88716 2.19479 7.89513 2.17352 7.91033C2.15224 7.92553 2.1364 7.94715 2.12832 7.97201C2.12024 7.99688 2.12034 8.02368 2.12862 8.04848C2.1369 8.07328 2.15291 8.09478 2.1743 8.10981L6.10208 11.1987C6.29483 11.3493 6.43841 11.5539 6.51459 11.7864C6.59076 12.0189 6.59608 12.2687 6.52986 12.5043L5.1743 17.3043C5.16621 17.3283 5.16618 17.3543 5.1742 17.3784C5.18221 17.4024 5.19785 17.4232 5.21875 17.4376C5.23887 17.4548 5.26449 17.4643 5.29097 17.4643C5.31745 17.4643 5.34307 17.4548 5.36319 17.4376L9.50764 14.6598C9.71018 14.5255 9.94792 14.4539 10.191 14.4543L10.1965 14.432Z" fill="#455A64"/>
</svg>
