<svg width="24" height="24" viewBox="0 0 24 24" fill="none" xmlns="http://www.w3.org/2000/svg">
<rect width="3" height="24" fill="white"/>
<rect x="21" width="3" height="24" fill="white"/>
<rect x="3" y="22" width="18" height="2" fill="white"/>
<rect x="3" width="18" height="1" fill="white"/>
<path d="M3 20.7742V15.4516C3 15.2022 3.20219 15 3.45161 15H5.77778C6.33006 15 6.77778 15.4477 6.77778 16V20.7742C6.77778 21.3265 6.33006 21.7742 5.77778 21.7742H4C3.44772 21.7742 3 21.3265 3 20.7742Z" fill="#007CB5"/>
<path d="M17.2222 12.7419V5.96771H20.7777V12.7419H17.2222Z" fill="#007CB5"/>
<path d="M6.77778 15.9032V15.9032C6.77778 15.4044 6.37339 15 5.87455 15H4C3.44772 15 3 15.4477 3 16V21C3 21.5523 3.44772 22 4 22H5.87455C6.37339 22 6.77778 21.5956 6.77778 21.0968V21.0968M6.77778 15.9032V21.0968M6.77778 15.9032C8.61628 15.6339 9.41189 15.009 9.88889 13.1935M6.77778 21.0968H8.86704C9.0968 21.0968 9.31955 21.1759 9.49783 21.3208L10.0577 21.776C10.236 21.9209 10.4588 22 10.6885 22H14.4113C14.6479 22 14.8769 21.9161 15.0575 21.7632L15.7573 21.1705C15.9817 20.9805 16.1111 20.7014 16.1111 20.4074V15.6136C16.1111 15.2371 15.8997 14.8926 15.5641 14.7221L15.4357 14.6569C15.2954 14.5856 15.1402 14.5484 14.9828 14.5484H13.7778C13.2255 14.5484 12.7778 14.1007 12.7778 13.5484V13.1935M12.7778 13.1935H9.88889M12.7778 13.1935H13.2478C13.5157 13.1935 13.7725 13.086 13.9605 12.895L14.4839 12.3631C14.6719 12.1721 14.9287 12.0645 15.1967 12.0645H17.2222M9.88889 13.1935H9.81096C9.57431 13.1935 9.34534 13.1096 9.16474 12.9567L8.46489 12.3641C8.24051 12.1741 8.11111 11.895 8.11111 11.6009V6.58134C8.11111 6.20489 8.32253 5.86033 8.65816 5.68981L8.78651 5.6246C8.92685 5.55329 9.08205 5.51613 9.23947 5.51613H10.2222C10.7745 5.51613 11.2222 5.06841 11.2222 4.51613V3.19209C11.2222 3.08621 11.2054 2.981 11.1724 2.88039L11.0498 2.50671C11.0168 2.4061 11 2.30089 11 2.19501V2C11 1.44771 11.4477 1 12 1H12.1142C12.5164 1 12.8794 1.24087 13.0356 1.61138L14.7036 5.56613C14.7526 5.68229 14.8228 5.78886 14.913 5.87686C15.6532 6.59847 16.186 6.82689 17.2222 6.87097M17.2222 6.87097V12.0645M17.2222 6.87097V6.87097C17.2222 6.37213 17.6266 5.96774 18.1254 5.96774H20C20.5523 5.96774 21 6.41546 21 6.96774V11.9677C21 12.52 20.5523 12.9677 20 12.9677H18.1254C17.6266 12.9677 17.2222 12.5634 17.2222 12.0645V12.0645" stroke="#455A64" stroke-width="1.2"/>
</svg>
