<svg width="144" height="179" viewBox="0 0 144 179" fill="none" xmlns="http://www.w3.org/2000/svg">
<circle cx="72" cy="72" r="72" fill="#E0ECEC"/>
<path d="M52.5299 169.504H61.1699V173.296H62.4979V168.432H52.5299V169.504ZM58.2419 165.984V164.272H62.5939V163.216H54.0339V160.464H62.4659V159.408H52.7219V164.272H56.9299V165.984H51.0899V167.04H64.0819V165.984H58.2419ZM74.2086 164.896C71.9366 165.264 70.0646 165.344 67.5206 165.344V163.408H72.7206V159.536H66.1926V160.592H71.4246V162.4H66.2406V166.416H67.3926C70.0486 166.416 72.0006 166.336 74.3526 165.952L74.2086 164.896ZM75.9686 171.92H69.2646V170.16H75.9686V171.92ZM75.9686 169.136H69.2646V167.44H67.9686V172.992H77.2646V167.44H75.9686V169.136ZM75.9526 158.848V166.72H77.2646V158.848H75.9526ZM90.3834 167.328H91.7114V158.848H90.3834V161.888H87.2634V162.96H90.3834V167.328ZM88.3034 165.632C86.2074 164.896 84.8154 163.12 84.8154 161.072V159.648H83.5034V161.12C83.5034 163.312 82.0794 165.232 79.8714 166.016L80.5594 167.088C82.2874 166.432 83.5834 165.136 84.1914 163.44C84.8154 164.928 86.0314 166.064 87.5994 166.656L88.3034 165.632ZM86.9754 172.128C84.8154 172.128 83.5034 171.504 83.5034 170.464C83.5034 169.408 84.8154 168.784 86.9754 168.784C89.1354 168.784 90.4474 169.408 90.4474 170.464C90.4474 171.504 89.1354 172.128 86.9754 172.128ZM86.9754 167.76C84.0314 167.76 82.1914 168.736 82.1914 170.464C82.1914 172.176 84.0314 173.168 86.9754 173.168C89.9194 173.168 91.7594 172.176 91.7594 170.464C91.7594 168.736 89.9194 167.76 86.9754 167.76Z" fill="black"/>
<path d="M107 47C106.992 44.4068 105.976 41.9185 104.165 40.0621C102.355 38.2056 99.8925 37.1267 97.3004 37.0539C94.7082 36.9811 92.1895 37.9201 90.2777 39.6721C88.3658 41.4241 87.211 43.8514 87.0577 46.44L55.9652 52.6575C55.2382 51.1465 54.1421 49.8432 52.7782 48.868C51.4142 47.8928 49.8264 47.2771 48.1616 47.0779C46.4967 46.8787 44.8085 47.1024 43.253 47.7283C41.6974 48.3542 40.3248 49.3621 39.2618 50.6589C38.1989 51.9557 37.48 53.4995 37.1716 55.1476C36.8632 56.7957 36.9753 58.495 37.4974 60.0884C38.0195 61.6817 38.9349 63.1178 40.1588 64.2638C41.3828 65.4098 42.8759 66.2288 44.5002 66.645V87.355C42.7952 87.7927 41.2363 88.6737 39.9818 89.9086C38.7272 91.1434 37.8218 92.6882 37.3572 94.3861C36.8927 96.0841 36.8856 97.8746 37.3367 99.5762C37.7879 101.278 38.6811 102.83 39.9259 104.074C41.1706 105.319 42.7225 106.212 44.424 106.663C46.1255 107.115 47.9161 107.108 49.6141 106.643C51.312 106.178 52.8568 105.273 54.0916 104.018C55.3265 102.764 56.2075 101.205 56.6452 99.5H77.3552C77.7708 101.125 78.5895 102.62 79.7356 103.845C80.8817 105.07 82.3182 105.986 83.9122 106.509C85.5063 107.032 87.2065 107.144 88.8555 106.836C90.5045 106.527 92.0492 105.808 93.3466 104.745C94.6441 103.681 95.6525 102.308 96.2785 100.752C96.9045 99.1951 97.128 97.5059 96.9282 95.8402C96.7284 94.1746 96.1119 92.5862 95.1356 91.2219C94.1593 89.8576 92.8548 88.7615 91.3427 88.035L97.5602 56.9425C100.105 56.8034 102.501 55.6961 104.256 53.8475C106.011 51.9989 106.993 49.5491 107 47ZM97.0002 42C97.9891 42 98.9558 42.2932 99.778 42.8426C100.6 43.3921 101.241 44.1729 101.62 45.0866C101.998 46.0002 102.097 47.0055 101.904 47.9754C101.711 48.9454 101.235 49.8363 100.536 50.5355C99.8365 51.2348 98.9455 51.711 97.9756 51.9039C97.0057 52.0969 96.0004 51.9978 95.0868 51.6194C94.1731 51.241 93.3922 50.6001 92.8428 49.7778C92.2934 48.9556 92.0002 47.9889 92.0002 47C92.0015 45.6743 92.5287 44.4033 93.4661 43.4659C94.4035 42.5285 95.6745 42.0013 97.0002 42ZM42.0002 57C42.0002 56.0111 42.2934 55.0444 42.8428 54.2221C43.3922 53.3999 44.1731 52.759 45.0868 52.3806C46.0004 52.0022 47.0057 51.9031 47.9756 52.0961C48.9455 52.289 49.8365 52.7652 50.5357 53.4645C51.235 54.1637 51.7112 55.0546 51.9041 56.0245C52.097 56.9945 51.998 57.9998 51.6196 58.9134C51.2411 59.827 50.6003 60.6079 49.778 61.1573C48.9558 61.7068 47.9891 62 47.0002 62C45.6745 61.9987 44.4035 61.4715 43.4661 60.5341C42.5287 59.5967 42.0015 58.3257 42.0002 57ZM47.0002 102C46.0113 102 45.0446 101.707 44.2223 101.157C43.4001 100.608 42.7592 99.8271 42.3808 98.9134C42.0024 97.9998 41.9033 96.9945 42.0963 96.0246C42.2892 95.0546 42.7654 94.1637 43.4647 93.4645C44.1639 92.7652 45.0548 92.289 46.0247 92.0961C46.9946 91.9031 48 92.0022 48.9136 92.3806C49.8272 92.759 50.6081 93.3999 51.1575 94.2221C51.7069 95.0444 52.0002 96.0111 52.0002 97C51.9989 98.3257 51.4717 99.5967 50.5343 100.534C49.5969 101.471 48.3259 101.999 47.0002 102ZM77.3552 94.5H56.6452C56.1974 92.7812 55.2992 91.2129 54.0432 89.957C52.7873 88.701 51.219 87.8028 49.5002 87.355V66.645C51.5428 66.1137 53.3641 64.9477 54.7016 63.315C56.0391 61.6823 56.8238 59.6672 56.9427 57.56L88.0352 51.3425C89.015 53.358 90.6427 54.9866 92.6577 55.9675L86.4402 87.0575C84.3329 87.1764 82.3178 87.9611 80.6852 89.2986C79.0525 90.6361 77.8865 92.4574 77.3552 94.5ZM87.0002 102C86.0113 102 85.0446 101.707 84.2223 101.157C83.4001 100.608 82.7592 99.8271 82.3808 98.9134C82.0023 97.9998 81.9033 96.9945 82.0963 96.0246C82.2892 95.0546 82.7654 94.1637 83.4646 93.4645C84.1639 92.7652 85.0548 92.289 86.0247 92.0961C86.9946 91.9031 88 92.0022 88.9136 92.3806C89.8272 92.759 90.6081 93.3999 91.1575 94.2221C91.7069 95.0444 92.0002 96.0111 92.0002 97C91.9989 98.3257 91.4716 99.5967 90.5343 100.534C89.5969 101.471 88.3259 101.999 87.0002 102Z" fill="black"/>
</svg>
