<svg width="144" height="179" viewBox="0 0 144 179" fill="none" xmlns="http://www.w3.org/2000/svg">
<circle cx="72" cy="72" r="72" fill="#E0ECEC"/>
<path d="M59.6179 160.144H56.1619V158.736H54.8499V160.144H51.3779V161.136H59.6179V160.144ZM53.3939 163.792C53.3939 163.04 54.2099 162.576 55.5059 162.576C56.7699 162.576 57.6019 163.04 57.6019 163.792C57.6019 164.544 56.7699 165.024 55.5059 165.024C54.2099 165.024 53.3939 164.544 53.3939 163.792ZM60.0499 166.544C58.8019 166.736 57.4739 166.832 56.1619 166.896V165.904C57.8099 165.728 58.8499 164.96 58.8499 163.792C58.8499 162.48 57.5059 161.664 55.5059 161.664C53.4739 161.664 52.1459 162.48 52.1459 163.792C52.1459 164.976 53.1859 165.744 54.8499 165.904V166.944C53.4739 166.992 52.1619 166.992 51.0259 166.992L51.1699 168.048C53.6819 168.032 57.0739 168.016 60.1459 167.488L60.0499 166.544ZM52.7699 170.224H60.8979V173.184H62.2099V169.184H52.7699V170.224ZM64.3059 163.184H62.2099V158.848H60.8979V168.464H62.2099V164.272H64.3059V163.184ZM73.8086 165.776C71.6966 165.072 70.3366 163.392 70.3366 161.52V160.96H73.5046V159.904H65.8086V160.96H69.0246V161.52C69.0246 163.584 67.5846 165.44 65.4246 166.192L66.0966 167.232C67.8086 166.624 69.1046 165.344 69.7126 163.712C70.3206 165.136 71.5526 166.272 73.1846 166.8L73.8086 165.776ZM72.0646 172.128C69.9206 172.128 68.6406 171.536 68.6406 170.512C68.6406 169.504 69.9206 168.912 72.0646 168.912C74.1766 168.912 75.4726 169.504 75.4726 170.512C75.4726 171.536 74.1766 172.128 72.0646 172.128ZM72.0646 167.872C69.1206 167.872 67.3286 168.848 67.3286 170.512C67.3286 172.192 69.1206 173.168 72.0646 173.168C74.9766 173.168 76.7846 172.192 76.7846 170.512C76.7846 168.848 74.9766 167.872 72.0646 167.872ZM76.6246 162.464V158.848H75.3126V167.504H76.6246V163.568H78.7526V162.464H76.6246ZM90.3834 167.328H91.7114V158.848H90.3834V161.888H87.2634V162.96H90.3834V167.328ZM88.3034 165.632C86.2074 164.896 84.8154 163.12 84.8154 161.072V159.648H83.5034V161.12C83.5034 163.312 82.0794 165.232 79.8714 166.016L80.5594 167.088C82.2874 166.432 83.5834 165.136 84.1914 163.44C84.8154 164.928 86.0314 166.064 87.5994 166.656L88.3034 165.632ZM86.9754 172.128C84.8154 172.128 83.5034 171.504 83.5034 170.464C83.5034 169.408 84.8154 168.784 86.9754 168.784C89.1354 168.784 90.4474 169.408 90.4474 170.464C90.4474 171.504 89.1354 172.128 86.9754 172.128ZM86.9754 167.76C84.0314 167.76 82.1914 168.736 82.1914 170.464C82.1914 172.176 84.0314 173.168 86.9754 173.168C89.9194 173.168 91.7594 172.176 91.7594 170.464C91.7594 168.736 89.9194 167.76 86.9754 167.76Z" fill="black"/>
<path d="M57.5633 81.7433C58.192 81.1361 59.034 80.8002 59.908 80.8078C60.782 80.8153 61.618 81.1659 62.2361 81.7839C62.8541 82.402 63.2047 83.238 63.2122 84.112C63.2198 84.986 62.8839 85.828 62.2767 86.4567L53.3833 95.3467H58.6667C59.4836 95.3469 60.2721 95.6471 60.8822 96.1903C61.4924 96.7335 61.8819 97.4819 61.9767 98.2933L62 98.68C62 99.5641 61.6488 100.412 61.0237 101.037C60.3986 101.662 59.5507 102.013 58.6667 102.013H45.3333C44.4493 102.013 43.6014 101.662 42.9763 101.037C42.3512 100.412 42 99.5641 42 98.68V85.3467C42 84.4626 42.3512 83.6148 42.9763 82.9896C43.6014 82.3645 44.4493 82.0133 45.3333 82.0133C46.2174 82.0133 47.0652 82.3645 47.6904 82.9896C48.3155 83.6148 48.6667 84.4626 48.6667 85.3467V90.6367L57.5633 81.7433ZM85.35 102.013C84.4659 102.013 83.6181 101.662 82.993 101.037C82.3679 100.412 82.0167 99.5641 82.0167 98.68C82.0167 97.7959 82.3679 96.9481 82.993 96.323C83.6181 95.6979 84.4659 95.3467 85.35 95.3467H90.6267L81.7433 86.4567C81.1694 85.8827 80.8246 85.119 80.7737 84.3089C80.7228 83.4989 80.9692 82.698 81.4667 82.0567L81.7433 81.7433C82.3684 81.1184 83.2161 80.7674 84.1 80.7674C84.9839 80.7674 85.8316 81.1184 86.4567 81.7433L95.35 90.6433V85.3467C95.3501 84.5302 95.6499 83.7422 96.1924 83.1321C96.7349 82.522 97.4825 82.1322 98.2933 82.0367L98.6833 82.0133C99.5674 82.0133 100.415 82.3645 101.04 82.9896C101.665 83.6148 102.017 84.4626 102.017 85.3467V98.68C102.017 99.5641 101.665 100.412 101.04 101.037C100.415 101.662 99.5674 102.013 98.6833 102.013H85.35ZM58.6667 42C59.5507 42 60.3986 42.3512 61.0237 42.9763C61.6488 43.6014 62 44.4493 62 45.3333C62 46.2174 61.6488 47.0652 61.0237 47.6904C60.3986 48.3155 59.5507 48.6667 58.6667 48.6667H53.39L62.2733 57.56C62.8473 58.134 63.192 58.8976 63.243 59.7077C63.2939 60.5178 63.0475 61.3187 62.55 61.96L62.2733 62.2733C61.6482 62.8982 60.8005 63.2493 59.9167 63.2493C59.0328 63.2493 58.1851 62.8982 57.56 62.2733L48.6667 53.3733V58.6667C48.6666 59.4831 48.3668 60.2711 47.8243 60.8812C47.2818 61.4914 46.5342 61.8811 45.7233 61.9767L45.3333 62C44.4493 62 43.6014 61.6488 42.9763 61.0237C42.3512 60.3986 42 59.5507 42 58.6667V45.3333C42 44.4493 42.3512 43.6014 42.9763 42.9763C43.6014 42.3512 44.4493 42 45.3333 42H58.6667ZM98.6833 42C99.5674 42 100.415 42.3512 101.04 42.9763C101.665 43.6014 102.017 44.4493 102.017 45.3333V58.6667C102.017 59.5507 101.665 60.3986 101.04 61.0237C100.415 61.6488 99.5674 62 98.6833 62C97.7993 62 96.9514 61.6488 96.3263 61.0237C95.7012 60.3986 95.35 59.5507 95.35 58.6667V53.3733L86.4567 62.2733C85.8827 62.8473 85.119 63.192 84.3089 63.243C83.4988 63.2939 82.698 63.0475 82.0567 62.55L81.7433 62.2733C81.1184 61.6482 80.7674 60.8005 80.7674 59.9167C80.7674 59.0328 81.1184 58.1851 81.7433 57.56L90.63 48.6667H85.35C84.5336 48.6666 83.7455 48.3668 83.1354 47.8243C82.5253 47.2818 82.1355 46.5342 82.04 45.7233L82.0167 45.3333C82.0167 44.4493 82.3679 43.6014 82.993 42.9763C83.6181 42.3512 84.4659 42 85.35 42H98.6833Z" fill="black"/>
</svg>
